<?xml version="1.0" standalone="no"?>
<!DOCTYPE svg PUBLIC "-//W3C//DTD SVG 20010904//EN"
 "http://www.w3.org/TR/2001/REC-SVG-20010904/DTD/svg10.dtd">
<svg version="1.0" xmlns="http://www.w3.org/2000/svg"
 width="1112.000000pt" height="1112.000000pt" viewBox="0 0 1112.000000 1112.000000"
 preserveAspectRatio="xMidYMid meet">
<metadata>
Created by potrace 1.14, written by Peter Selinger 2001-2017
</metadata>
<g transform="translate(0.000000,1112.000000) scale(0.100000,-0.100000)"
fill="#000000" stroke="none">
<path d="M4550 8150 c22 -7 22 -8 5 -10 -11 -1 -23 -2 -27 -1 -5 0 -8 -4 -8
-10 0 -8 -4 -8 -13 -1 -7 6 -18 7 -26 3 -9 -6 -10 -11 -2 -15 6 -4 11 -12 11
-18 0 -7 -5 -6 -15 2 -12 10 -15 7 -21 -14 -3 -13 -2 -31 2 -38 6 -9 3 -9 -10
1 -15 12 -17 12 -14 0 2 -8 6 -16 10 -19 4 -3 -1 -14 -12 -23 -11 -9 -20 -13
-20 -9 0 4 -11 8 -25 8 -16 1 -23 -2 -18 -10 3 -7 1 -6 -7 1 -21 19 -53 -13
-40 -38 9 -15 7 -17 -11 -14 -17 4 -19 2 -9 -10 7 -8 11 -15 9 -16 -2 0 -17
-3 -34 -5 -23 -3 -26 -2 -15 6 13 9 13 10 0 11 -8 1 -18 1 -22 0 -5 0 -8 4 -8
10 0 8 -4 8 -15 -1 -8 -6 -19 -9 -24 -6 -6 4 -8 -2 -6 -14 2 -12 0 -18 -6 -14
-5 3 -17 0 -26 -8 -12 -9 -15 -9 -9 -1 5 9 2 11 -8 7 -8 -3 -12 -12 -10 -19 3
-7 0 -16 -7 -21 -8 -4 -10 -3 -5 4 5 8 -2 10 -25 5 -19 -4 -30 -2 -26 3 3 6
-5 10 -18 10 -13 0 -22 -3 -19 -7 2 -4 -1 -9 -7 -11 -7 -2 -4 -10 7 -18 10 -8
15 -10 11 -3 -4 6 -3 14 2 17 5 3 12 -1 15 -9 4 -12 10 -13 24 -6 12 6 23 6
33 -1 12 -8 12 -9 -1 -5 -16 5 -43 -17 -33 -27 4 -3 1 -6 -5 -6 -7 0 -12 -4
-12 -10 0 -5 8 -6 18 -3 15 6 15 5 3 -10 -7 -9 -17 -15 -20 -12 -4 2 -8 -2 -8
-10 0 -8 3 -13 5 -10 3 3 11 0 19 -6 10 -9 10 -15 2 -25 -6 -7 -9 -19 -7 -26
3 -7 -2 -19 -11 -26 -12 -10 -13 -15 -3 -18 6 -3 12 -10 12 -15 0 -6 -4 -8 -9
-4 -5 3 -13 1 -16 -5 -4 -6 -1 -9 6 -8 8 2 14 -10 16 -31 2 -26 0 -32 -13 -27
-8 3 -12 2 -9 -4 3 -6 1 -10 -5 -10 -6 0 -9 -4 -6 -9 9 -14 -5 -42 -16 -35 -6
4 -9 1 -6 -7 3 -8 -4 -18 -15 -24 -21 -10 -33 -45 -16 -45 5 0 9 -5 9 -11 0
-5 -5 -7 -10 -4 -13 8 -8 -18 5 -27 6 -5 5 -8 -2 -8 -7 0 -13 -5 -13 -11 0 -5
4 -8 9 -4 6 3 9 -4 8 -15 -1 -11 -5 -20 -9 -20 -4 0 -6 -29 -5 -65 1 -36 -1
-65 -5 -65 -4 0 -5 -7 -2 -15 4 -10 0 -15 -16 -15 -12 0 -18 -4 -15 -10 4 -6
11 -7 17 -4 7 5 8 2 4 -5 -5 -7 -14 -10 -22 -7 -9 3 -11 0 -7 -11 5 -13 3 -14
-16 -3 -21 11 -22 10 -10 -12 11 -21 11 -22 -4 -9 -15 12 -21 9 -19 -10 1 -3
-5 -6 -13 -6 -8 0 -12 3 -11 6 2 3 -6 6 -19 6 -14 0 -21 -5 -18 -12 3 -7 10
-10 16 -6 6 4 7 1 3 -6 -5 -7 -14 -10 -22 -7 -9 3 -14 -1 -14 -12 0 -15 -2
-15 -10 -2 -8 12 -10 10 -10 -8 0 -13 -4 -21 -10 -17 -5 3 -6 13 -3 23 7 18 5
17 -17 -12 -8 -11 -10 -17 -4 -13 16 10 28 -25 12 -35 -9 -5 -5 -8 11 -8 19 0
21 -3 12 -14 -16 -19 10 -41 28 -23 10 9 11 8 5 -7 -6 -15 -4 -17 7 -11 11 7
12 6 3 -6 -6 -8 -10 -24 -8 -36 2 -13 1 -22 -4 -22 -20 3 -32 -3 -32 -16 0 -9
-7 -18 -15 -21 -8 -4 -15 -10 -15 -16 0 -5 6 -6 13 -2 9 6 9 5 0 -8 -7 -8 -9
-19 -5 -23 4 -5 1 -5 -6 -1 -8 5 -21 0 -34 -14 -11 -12 -28 -20 -38 -17 -13 3
-17 -2 -16 -22 1 -16 6 -25 14 -23 8 1 11 -2 7 -8 -3 -5 -2 -10 3 -10 5 0 9
-7 9 -15 0 -8 -5 -15 -11 -15 -6 0 -4 -5 4 -10 13 -9 13 -10 0 -10 -12 0 -12
-2 -1 -9 9 -6 10 -10 2 -16 -8 -4 -9 -11 -2 -19 6 -8 3 -19 -10 -36 -16 -21
-18 -22 -13 -5 4 16 4 17 -5 4 -5 -8 -11 -27 -13 -42 -2 -14 -7 -29 -11 -33
-3 -4 -4 3 -2 15 2 12 0 19 -5 16 -5 -3 -25 -6 -45 -7 -20 -1 -31 -5 -24 -9 6
-4 10 -18 7 -32 -3 -16 -1 -25 6 -24 6 1 10 -4 8 -10 -1 -7 2 -13 8 -13 5 0
10 6 10 13 0 8 3 7 9 -3 6 -8 7 -19 3 -25 -3 -5 1 -4 10 3 12 9 18 10 23 2 4
-6 4 -14 0 -18 -7 -7 -11 -8 -42 -11 -17 -2 -17 -2 0 -12 9 -6 15 -14 12 -19
-3 -5 -1 -11 5 -15 5 -3 10 -12 10 -18 0 -7 -4 -6 -10 3 -8 13 -10 12 -10 -2
0 -10 -5 -18 -11 -18 -5 0 -7 -6 -3 -12 5 -9 2 -9 -9 1 -11 9 -17 10 -17 2 0
-6 -5 -11 -11 -11 -5 0 -7 6 -3 13 5 8 2 7 -10 -2 -12 -10 -14 -16 -5 -21 8
-6 8 -9 0 -14 -16 -10 -14 -26 3 -26 20 0 29 -17 15 -26 -8 -5 -9 -3 -4 6 6 9
4 11 -4 6 -7 -5 -10 -15 -7 -23 5 -11 2 -14 -11 -9 -17 6 -17 5 -1 -7 14 -11
15 -16 5 -27 -10 -10 -9 -11 3 -6 8 4 6 1 -4 -8 -10 -8 -23 -13 -28 -10 -5 3
-7 0 -6 -8 2 -8 -4 -12 -15 -10 -12 2 -21 -4 -24 -18 -3 -12 -11 -19 -17 -17
-15 6 -15 -45 -1 -55 6 -5 3 -8 -7 -8 -9 0 -18 6 -21 13 -3 6 -4 2 -4 -10 1
-13 8 -23 17 -24 10 0 9 -3 -5 -9 -18 -8 -18 -9 5 -9 19 -1 22 -3 10 -10 -8
-6 -17 -8 -20 -6 -3 2 -7 -5 -7 -16 -1 -12 3 -17 9 -13 7 4 8 2 4 -4 -4 -6
-13 -9 -20 -6 -7 3 -16 -2 -19 -10 -4 -9 -14 -16 -23 -16 -10 0 -14 -5 -10
-15 3 -8 1 -15 -4 -15 -6 0 -9 -6 -8 -12 2 -7 -2 -12 -9 -11 -6 1 -14 -4 -17
-12 -3 -10 1 -15 12 -15 14 0 14 -2 3 -9 -17 -11 -23 -51 -8 -51 6 0 7 -3 4
-6 -4 -4 -13 -1 -22 6 -13 11 -14 10 -9 -4 5 -12 2 -15 -12 -9 -14 5 -16 3
-11 -11 4 -10 3 -15 -4 -11 -5 4 -18 1 -27 -6 -12 -10 -11 -7 3 11 l20 25 -20
-15 c-11 -8 -23 -19 -26 -23 -3 -5 -10 -8 -15 -8 -5 1 -10 -3 -10 -9 -1 -5 -2
-15 -3 -21 -1 -8 -6 -8 -16 1 -12 10 -15 10 -15 0 0 -9 -4 -9 -17 1 -9 8 -14
9 -10 3 4 -7 0 -15 -9 -18 -8 -3 -13 -2 -10 2 3 5 -1 9 -8 9 -8 0 -11 -8 -8
-20 3 -14 1 -18 -6 -13 -7 4 -12 2 -12 -4 0 -6 -5 -8 -12 -4 -8 5 -7 0 2 -11
9 -11 10 -16 3 -11 -7 4 -21 2 -30 -3 -10 -6 -12 -11 -5 -11 6 0 12 -5 12 -11
0 -5 -5 -7 -12 -3 -8 5 -9 2 -4 -11 5 -15 4 -16 -9 -5 -13 11 -15 9 -15 -11 0
-17 -3 -20 -9 -11 -6 10 -10 8 -16 -10 -11 -35 -13 -98 -4 -98 5 0 9 -5 9 -11
0 -5 -4 -8 -8 -5 -15 9 -8 -39 7 -52 9 -8 11 -11 4 -8 -18 9 -23 -7 -7 -22 8
-7 14 -10 14 -6 0 4 9 -3 20 -16 11 -13 20 -20 20 -16 0 4 9 2 20 -4 11 -6 17
-16 13 -26 -6 -16 -29 -13 -26 3 1 5 -4 10 -12 10 -11 0 -12 -5 -3 -20 8 -15
7 -18 -4 -11 -20 13 -50 15 -43 4 3 -5 1 -10 -6 -10 -13 0 -38 -29 -39 -45 0
-5 4 -4 9 4 6 9 11 10 15 2 4 -6 0 -14 -9 -17 -14 -6 -14 -8 2 -20 15 -12 15
-13 2 -8 -10 3 -20 0 -25 -7 -4 -8 -3 -10 4 -5 9 5 11 -3 10 -27 -2 -18 -8
-34 -15 -34 -9 0 -9 6 -2 21 10 20 10 20 -5 2 -14 -18 -14 -21 2 -39 17 -19
16 -20 -7 -7 -19 10 -22 10 -15 -1 12 -20 12 -49 1 -42 -6 4 -8 0 -4 -10 6
-17 -7 -24 -16 -9 -2 4 -3 2 -1 -4 1 -6 -3 -17 -9 -24 -9 -10 -9 -11 0 -6 9 5
11 2 7 -8 -3 -9 -12 -12 -21 -9 -10 4 -14 2 -10 -4 6 -10 -19 -28 -34 -25 -4
1 -5 -8 -2 -18 4 -16 2 -19 -11 -14 -16 6 -23 -10 -8 -19 4 -2 1 -2 -5 -1 -7
2 -13 -2 -13 -8 0 -6 -6 -5 -17 3 -15 12 -16 12 -10 -5 7 -17 6 -17 -10 -5
-15 12 -16 12 -10 -6 5 -17 5 -18 -5 -4 -10 15 -13 14 -29 -2 -10 -10 -27 -16
-38 -14 -15 3 -18 0 -14 -12 5 -12 3 -14 -7 -8 -10 6 -12 4 -7 -7 4 -11 -1
-18 -15 -22 -18 -4 -19 -7 -8 -21 11 -13 10 -14 -5 -8 -14 5 -17 3 -12 -10 4
-10 2 -16 -5 -14 -7 1 -14 -11 -18 -28 -3 -16 -10 -30 -17 -30 -6 0 -15 -3
-19 -8 -4 -4 -2 -7 5 -7 7 0 10 -4 6 -10 -3 -5 -11 -8 -18 -6 -7 1 -9 1 -4 -1
14 -8 7 -25 -8 -19 -8 3 -14 2 -13 -2 1 -4 -4 -18 -11 -31 -11 -19 -11 -22 1
-15 7 4 4 -3 -7 -16 -13 -15 -15 -21 -5 -16 8 4 7 1 -3 -7 -12 -10 -15 -17 -7
-22 8 -5 8 -11 1 -19 -6 -7 -7 -17 -3 -21 4 -5 1 -5 -6 -1 -10 6 -10 11 -1 22
8 10 8 14 0 14 -6 0 -11 -5 -11 -11 0 -5 -5 -7 -11 -3 -6 3 -4 -4 4 -17 l16
-24 -44 1 c-29 0 -42 -3 -37 -10 12 -19 11 -40 -1 -48 -9 -6 -9 -8 1 -8 9 0
10 -5 2 -19 -7 -13 -7 -22 0 -26 7 -4 6 -13 -1 -27 -8 -15 -8 -19 0 -14 6 4
11 3 11 -2 0 -16 -13 -22 -27 -11 -9 9 -13 8 -13 0 0 -6 4 -11 10 -11 5 0 9
-3 9 -7 -3 -20 2 -33 12 -33 8 0 7 6 -2 18 -13 15 -12 16 4 3 11 -9 14 -17 8
-25 -7 -8 -3 -16 12 -26 21 -13 21 -12 7 6 -14 17 -13 18 1 7 9 -7 19 -10 23
-6 4 4 4 -1 0 -11 -6 -14 -4 -17 6 -11 8 5 11 3 8 -6 -3 -8 -1 -24 3 -37 6
-15 5 -21 -1 -17 -6 3 -10 -1 -10 -11 0 -14 -2 -15 -17 -3 -15 13 -15 12 -5
-8 10 -19 9 -20 -10 -15 -16 4 -19 2 -13 -9 7 -11 6 -12 -6 -2 -8 6 -19 9 -25
5 -12 -8 -11 -78 1 -89 4 -5 5 1 1 11 -5 16 -4 17 8 7 8 -7 12 -20 9 -29 -3
-10 -1 -13 4 -7 11 14 36 18 28 5 -3 -5 -1 -10 5 -10 6 0 8 -5 4 -11 -5 -8 -1
-8 13 0 14 7 23 7 31 -1 8 -8 16 -7 28 3 13 10 16 11 10 1 -5 -9 -3 -13 5 -11
26 3 37 -1 43 -17 5 -13 3 -14 -7 -6 -10 8 -13 7 -13 -8 0 -12 6 -17 18 -15
10 2 19 1 22 -3 7 -13 -14 -53 -24 -47 -5 3 -10 -1 -10 -10 0 -10 5 -13 13 -9
9 6 9 5 0 -8 -7 -8 -9 -19 -5 -24 4 -4 -1 -2 -11 5 -15 12 -17 12 -10 -4 5
-14 3 -17 -10 -12 -9 3 -16 3 -16 -1 4 -25 -2 -34 -15 -23 -11 9 -15 8 -20 -5
-4 -10 -12 -14 -22 -10 -15 6 -15 4 -3 -10 11 -13 11 -15 -2 -12 -8 1 -15 -1
-16 -6 -3 -17 -27 -25 -42 -13 -12 10 -13 9 -2 -10 10 -19 9 -24 -8 -35 -16
-10 -18 -15 -8 -27 9 -12 9 -13 0 -7 -9 5 -12 0 -11 -18 2 -23 8 -29 28 -28 3
0 12 -7 20 -16 13 -14 13 -15 -1 -10 -9 4 -15 0 -15 -11 0 -10 6 -18 13 -18 7
0 9 5 6 11 -4 6 1 5 10 -3 18 -15 23 -26 7 -16 -5 3 -10 1 -10 -4 0 -10 13
-15 32 -13 3 1 9 -5 12 -13 3 -10 0 -12 -12 -8 -13 4 -12 2 3 -10 11 -8 23
-13 27 -11 4 2 6 -5 5 -16 -1 -11 -7 -18 -13 -16 -7 3 -10 -3 -7 -15 3 -11 0
-19 -6 -19 -7 0 -9 -5 -5 -11 4 -8 0 -9 -15 -4 -24 7 -25 5 -10 -29 7 -14 16
-23 20 -20 5 3 9 -3 9 -14 0 -14 6 -19 23 -17 15 2 24 -2 24 -11 0 -7 -4 -11
-8 -9 -4 3 -10 -2 -13 -11 -5 -12 -2 -15 11 -10 14 6 14 4 -3 -15 -10 -12 -14
-19 -7 -15 14 8 36 -27 25 -40 -4 -5 2 -2 12 6 11 8 17 10 13 3 -4 -6 -3 -14
2 -18 5 -3 8 -14 6 -25 -2 -12 0 -18 6 -14 5 3 17 0 25 -7 12 -10 13 -9 7 7
-6 16 -4 17 9 7 8 -7 18 -10 21 -6 4 3 7 -3 7 -15 0 -24 16 -30 23 -9 2 7 11
-1 21 -18 12 -22 15 -24 11 -7 l-6 22 25 -23 c14 -14 26 -29 26 -34 0 -5 12
-9 27 -9 18 1 28 -4 28 -13 0 -20 53 -22 64 -3 7 12 9 12 14 0 8 -22 87 -9 87
14 0 5 7 7 16 4 14 -5 15 -4 5 8 -10 12 -8 13 10 9 17 -5 20 -3 14 7 -5 8 -4
11 3 6 6 -3 14 -1 17 4 5 8 13 6 25 -5 14 -12 20 -13 26 -4 5 8 3 10 -6 4 -9
-5 -11 -4 -6 4 4 6 12 9 17 5 16 -9 69 -11 69 -2 0 4 7 5 15 2 8 -4 12 -11 8
-17 -3 -6 -1 -7 6 -3 9 6 9 11 1 21 -9 11 -8 13 9 10 15 -3 18 0 14 12 -5 11
-3 14 6 8 10 -6 11 -3 2 13 -9 18 -8 23 10 32 17 10 18 14 7 27 -12 15 -11 15
9 3 12 -8 21 -16 21 -19 -2 -20 4 -31 16 -31 22 0 28 30 8 37 -24 10 -47 33
-32 33 7 0 10 6 7 13 -3 7 3 13 13 13 10 0 16 -4 13 -9 -3 -5 1 -13 8 -18 12
-7 12 -9 0 -9 -11 0 -11 -3 -1 -15 7 -8 16 -12 21 -9 5 3 9 0 9 -5 0 -6 -4
-11 -10 -11 -5 0 -10 -4 -10 -10 0 -18 19 -10 25 11 4 12 10 18 14 12 8 -11
27 -11 38 1 5 5 3 6 -5 2 -17 -10 -8 44 10 56 19 11 30 10 22 -4 -4 -7 -3 -8
4 -4 7 4 12 14 12 22 0 8 5 14 11 14 5 0 8 -4 5 -9 -4 -5 2 -8 11 -6 10 2 21
4 26 4 4 1 7 8 7 17 0 14 2 15 17 3 15 -13 15 -12 4 9 -10 18 -9 22 4 22 9 0
14 4 10 10 -3 5 -13 7 -23 4 -13 -5 -14 -4 -3 4 9 6 12 23 8 51 -2 22 -1 41 4
41 5 0 6 8 3 18 -5 14 -4 14 4 2 6 -8 8 -18 5 -23 -3 -5 4 -4 15 2 30 16 36
14 21 -7 -12 -15 -12 -16 2 -5 9 7 19 10 22 6 4 -3 7 -1 7 5 0 7 -4 12 -10 12
-5 0 -10 7 -10 16 0 9 -6 14 -12 11 -7 -2 -21 0 -30 4 -10 6 -19 5 -23 -1 -9
-15 -27 -12 -19 3 6 9 4 9 -7 0 -16 -16 -29 -17 -29 -2 0 5 6 7 13 3 9 -6 9
-4 1 7 -12 15 -11 52 1 84 5 11 5 17 0 13 -14 -13 -33 11 -28 35 4 21 4 22
-11 3 -9 -11 -16 -15 -16 -9 0 7 4 14 10 18 5 3 8 11 6 18 -1 7 -1 9 1 5 8
-15 19 -8 20 12 1 13 -2 18 -9 14 -7 -4 -8 -2 -4 5 4 6 11 9 14 7 4 -2 15 9
24 25 11 19 13 29 6 29 -7 0 -4 6 7 13 14 11 15 16 5 22 -9 5 -11 4 -6 -3 12
-19 2 -14 -18 10 -17 19 -17 21 -1 14 15 -6 16 -4 4 10 -17 21 -20 44 -6 41 7
-1 11 4 9 12 -3 12 -1 12 13 1 14 -12 15 -10 5 14 -9 24 -8 26 8 17 14 -7 19
-6 19 4 0 8 -5 11 -11 8 -6 -4 -2 3 8 15 21 24 31 29 20 10 -5 -9 -2 -9 9 1
18 15 23 26 7 16 -5 -3 -10 1 -10 10 0 9 5 13 10 10 6 -3 10 -1 10 5 0 7 7 9
16 6 13 -5 14 -4 6 7 -16 19 -3 30 16 14 13 -10 14 -9 4 9 -8 16 -8 24 1 34 9
10 9 11 0 6 -7 -4 -13 -2 -13 4 0 6 -5 8 -11 4 -8 -5 -8 -1 0 14 7 14 8 23 1
27 -6 4 -8 10 -5 14 2 5 0 23 -5 40 -8 30 -7 31 7 19 15 -12 15 -11 4 11 -10
18 -10 25 0 35 9 8 10 8 4 -4 -4 -8 1 -6 12 5 11 11 19 27 19 35 -1 8 7 14 16
14 11 -1 15 3 11 10 -12 18 -12 35 -1 43 7 3 8 1 4 -5 -5 -8 -2 -10 8 -6 9 3
14 10 11 14 -3 5 -1 12 5 15 8 5 8 11 0 20 -6 7 -8 21 -4 31 4 12 3 15 -3 7
-6 -9 -12 -7 -21 7 -7 11 -8 20 -3 20 5 0 12 9 16 20 3 11 9 19 13 19 20 -3
25 2 12 11 -9 6 -10 10 -3 10 6 0 15 -5 18 -10 5 -8 11 -7 21 1 15 12 20 34 6
25 -5 -3 -9 1 -9 9 0 8 4 12 9 9 15 -10 8 9 -9 23 -10 8 -12 11 -4 7 9 -4 12
-3 8 3 -4 6 -20 10 -37 9 -19 -1 -30 3 -30 11 0 7 -5 13 -11 13 -8 0 -7 6 2
17 8 9 9 14 3 10 -12 -7 -12 21 0 41 4 6 4 18 0 25 -5 7 0 6 11 -3 17 -14 17
-13 10 10 -7 23 -7 23 9 7 22 -22 27 -22 19 1 -6 15 -3 14 17 -3 13 -11 20
-14 16 -7 -4 7 -2 12 5 12 9 0 9 3 0 14 -9 11 -9 16 0 21 8 6 7 10 -2 16 -11
7 -11 9 -1 9 7 0 10 5 7 10 -3 6 4 14 17 19 13 6 17 10 10 10 -10 1 -10 5 2
17 9 8 21 12 28 8 9 -5 8 -2 -1 9 -12 16 -12 17 5 11 10 -4 16 -4 12 1 -4 4 1
15 10 24 10 9 12 12 5 7 -15 -10 -17 2 -4 23 5 8 14 10 21 6 9 -6 11 -4 5 5
-6 9 -4 12 6 8 10 -4 15 1 15 13 0 15 -3 16 -16 6 -13 -11 -13 -10 -1 6 7 9
21 17 30 18 10 0 12 2 3 6 -8 3 -6 10 8 21 12 10 23 26 25 37 2 11 4 22 4 24
1 2 7 -2 15 -8 12 -10 14 -9 12 5 -3 19 24 53 37 47 4 -2 7 1 7 6 0 6 -4 11
-10 11 -5 0 -10 5 -10 11 0 5 5 7 10 4 6 -3 10 -1 10 5 0 6 4 9 9 5 5 -3 13 0
17 6 4 8 3 9 -4 5 -7 -4 -12 -2 -12 3 0 6 5 12 10 12 6 1 15 2 22 3 15 1 20
36 5 36 -7 0 -4 5 6 11 10 6 14 15 10 22 -4 7 1 6 10 -2 15 -12 17 -12 12 2
-4 10 1 18 16 22 17 6 19 9 8 16 -12 8 -12 10 0 18 8 5 11 16 8 26 -4 9 -3 14
1 12 4 -3 13 1 19 9 8 8 9 15 3 19 -16 10 10 54 28 48 12 -5 13 -3 4 13 -9 15
-6 24 11 43 12 13 16 21 9 16 -11 -6 -12 -3 -3 14 7 11 14 21 17 21 3 0 2 -4
-1 -10 -3 -5 -1 -10 4 -10 9 0 15 19 13 41 -1 3 10 5 23 3 14 -1 28 3 32 8 3
7 1 8 -5 4 -7 -4 -12 -1 -12 9 0 9 4 13 10 10 5 -3 20 1 32 9 12 9 18 16 12
16 -5 0 -15 -5 -22 -12 -9 -9 -12 -9 -12 0 0 15 35 34 45 24 5 -4 5 -1 1 6 -4
7 -2 20 6 29 11 14 11 16 -2 8 -12 -6 -13 -5 -2 6 6 7 12 22 12 32 0 11 5 17
13 14 8 -3 12 6 11 28 -2 28 1 33 18 30 17 -4 18 -2 6 12 -9 12 -9 15 0 9 7
-4 12 -2 12 4 0 6 5 8 12 4 7 -5 9 -2 6 8 -6 14 -2 16 41 20 16 2 18 6 9 23
-10 18 -9 18 4 7 13 -10 18 -10 24 -1 5 8 3 9 -6 4 -10 -6 -12 -4 -7 8 6 15
-3 22 -25 18 -4 0 -5 8 -3 19 2 12 0 18 -6 15 -5 -4 -9 0 -9 7 0 10 -2 10 -9
-1 -7 -10 -10 -11 -16 -1 -6 10 -11 9 -21 -5 -12 -16 -13 -16 -11 4 1 11 5 21
9 21 4 0 8 7 8 16 0 8 5 12 10 9 6 -3 10 -2 10 4 0 5 -4 11 -10 13 -5 2 -11
14 -14 28 -2 14 -9 24 -16 22 -6 -1 -9 2 -5 8 3 6 11 8 16 5 5 -4 9 -1 9 4 0
6 -6 11 -12 11 -10 0 -9 3 1 9 11 7 11 9 0 14 -12 5 -12 6 0 6 11 1 11 4 0 18
-8 9 -9 14 -3 10 7 -4 14 2 17 14 4 13 10 18 18 13 8 -4 10 -3 5 4 -4 7 -2 12
4 12 6 0 8 5 5 10 -4 6 -11 8 -16 5 -5 -3 -6 1 -3 9 3 9 10 16 15 16 5 0 9 9
9 20 0 11 -5 20 -11 20 -5 0 -7 -5 -3 -12 4 -7 3 -8 -5 -4 -6 4 -8 13 -4 19 4
7 6 20 4 31 -2 13 1 16 11 10 7 -4 4 3 -7 16 -11 13 -15 21 -9 17 6 -3 16 3
24 13 8 10 17 17 21 15 4 -3 13 3 20 13 13 15 12 16 -3 3 -12 -9 -18 -10 -18
-2 0 6 14 14 31 18 20 4 28 10 25 19 -3 8 1 14 9 14 8 0 15 5 15 11 0 8 4 8
13 0 15 -12 37 3 37 26 0 11 3 11 14 1 11 -10 11 -16 2 -27 -8 -11 -8 -13 1
-8 6 4 13 1 16 -5 6 -19 -4 -49 -14 -42 -16 9 -10 -3 8 -17 11 -10 14 -10 9
-1 -4 7 -2 12 5 12 7 0 9 -8 6 -21 -4 -15 -2 -19 9 -15 7 3 13 1 11 -3 -1 -5
9 -18 21 -29 13 -12 21 -25 18 -31 -4 -5 -1 -13 5 -17 8 -4 9 -3 5 4 -4 7 -3
12 3 12 5 0 11 -6 14 -12 3 -10 8 -10 18 1 12 12 12 13 0 6 -10 -5 -12 -4 -7
4 4 6 13 8 19 4 27 -17 37 -12 25 10 -10 19 -9 20 3 10 12 -10 15 -8 16 9 1
12 6 24 11 27 17 12 22 42 7 47 -11 5 -12 9 -2 19 7 7 17 10 22 7 6 -3 4 2 -4
11 -7 9 -21 17 -30 17 -14 0 -14 2 -1 10 13 8 12 10 -3 10 -10 0 -16 4 -13 9
3 5 -2 17 -12 28 -9 10 -12 12 -7 3 9 -13 8 -13 -7 -1 -10 7 -18 20 -18 27 0
8 -5 14 -11 14 -5 0 -7 5 -4 10 4 6 1 9 -7 8 -7 -2 -12 2 -11 9 2 8 -4 10 -15
6 -15 -6 -16 -5 -2 12 14 17 13 18 -2 12 -10 -3 -20 -1 -24 5 -5 7 -2 8 6 3
10 -6 12 -4 7 8 -3 9 -2 19 4 23 6 3 6 10 1 17 -5 7 -8 22 -6 35 3 16 0 21 -8
16 -7 -4 -6 1 4 11 21 22 39 11 34 -22 -4 -19 -2 -23 10 -19 9 3 12 1 9 -4 -3
-6 -1 -10 4 -10 6 0 11 -10 11 -22 0 -19 2 -20 10 -8 8 13 10 12 10 -2 0 -10
5 -18 10 -18 6 0 10 -5 10 -11 0 -5 -5 -7 -11 -4 -6 4 -5 -2 3 -14 7 -12 16
-21 21 -21 4 0 5 5 1 12 -4 7 -3 8 5 4 9 -6 9 -11 0 -22 -8 -10 -8 -14 -1 -14
7 0 9 -8 5 -17 -3 -10 -3 -15 1 -11 11 10 34 -14 29 -30 -4 -8 0 -10 11 -6 9
3 16 1 16 -6 0 -7 8 -9 20 -5 12 4 20 2 20 -5 0 -6 -5 -8 -12 -4 -7 5 -8 3 -2
-7 11 -18 14 -39 5 -39 -4 0 -16 -7 -27 -15 -16 -13 -16 -14 -1 -9 13 5 16 2
11 -10 -3 -9 -11 -13 -18 -9 -6 3 -2 -4 9 -17 11 -13 15 -20 8 -17 -6 4 -15 2
-19 -4 -5 -8 -3 -9 6 -4 10 6 12 4 7 -8 -3 -9 -3 -16 1 -16 23 4 34 -3 28 -17
-6 -15 -4 -15 11 -3 11 9 14 10 9 2 -4 -7 -4 -19 0 -25 11 -18 12 -48 2 -48
-5 0 -6 -4 -3 -10 4 -6 -1 -7 -11 -3 -11 4 -13 8 -6 11 8 2 6 9 -6 20 -10 10
-11 13 -2 7 13 -8 13 -7 2 5 -14 16 -72 21 -72 7 0 -5 -4 -5 -10 -2 -5 3 -10
1 -10 -5 0 -6 -4 -8 -10 -5 -5 3 -10 1 -10 -4 0 -6 4 -11 8 -11 11 0 9 -37 -3
-47 -4 -5 -5 -2 -1 4 5 9 2 11 -10 6 -16 -6 -15 -8 4 -16 12 -6 22 -13 22 -17
0 -3 7 -15 16 -26 8 -10 12 -13 8 -5 -4 9 -2 12 7 9 8 -3 18 4 24 15 15 31 44
45 54 28 12 -18 6 -47 -8 -43 -9 2 -9 -3 -1 -18 8 -16 8 -18 -4 -14 -14 5 -29
-10 -32 -34 -1 -6 2 -10 7 -6 14 8 5 -31 -11 -51 -11 -14 -11 -16 0 -13 16 3
20 -30 6 -49 -12 -18 0 -16 19 3 13 13 16 14 15 3 -1 -8 -2 -22 -1 -33 1 -16
3 -17 18 -5 11 10 14 10 9 2 -4 -8 -2 -13 5 -13 10 0 10 -3 1 -12 -19 -19 -14
-32 6 -17 14 11 13 10 -2 -9 -12 -13 -14 -22 -7 -22 7 0 9 -5 6 -10 -4 -6 -12
-7 -18 -3 -9 5 -9 3 0 -8 10 -12 10 -18 0 -28 -9 -10 -9 -11 3 -6 11 4 16 -1
17 -17 1 -13 7 -24 13 -26 5 -2 8 -8 4 -13 -3 -5 0 -9 6 -9 6 0 8 -4 5 -10 -3
-5 1 -10 10 -10 9 0 14 -4 10 -9 -3 -5 0 -21 6 -35 12 -24 22 -31 43 -27 5 1
4 -5 -4 -13 -11 -14 -9 -16 10 -16 12 0 39 -10 59 -22 28 -17 33 -18 22 -5
-12 15 -12 17 3 11 9 -3 16 -1 16 5 0 6 5 11 11 11 5 0 7 -6 3 -12 -6 -9 -3
-9 9 0 9 8 21 11 27 7 6 -4 9 -1 8 7 -2 7 3 12 10 10 8 -1 11 2 7 8 -5 8 -11
7 -21 -1 -12 -10 -13 -9 -8 5 3 9 10 16 15 16 5 0 9 5 9 11 0 5 -4 7 -10 4 -6
-4 -6 3 0 21 10 25 9 26 -7 13 -9 -8 -14 -9 -10 -2 4 6 3 15 -3 18 -8 5 -7 12
2 23 12 13 10 14 -9 3 -20 -10 -22 -9 -16 6 5 13 3 15 -12 10 -14 -6 -15 -5
-7 6 8 9 8 17 0 27 -8 12 -9 12 -4 -2 3 -10 1 -18 -4 -18 -6 0 -10 6 -11 13 0
6 -2 22 -3 35 -2 13 3 22 10 22 8 0 11 6 7 17 -4 10 -2 14 4 10 6 -4 14 0 17
9 8 20 26 8 26 -18 0 -12 5 -18 13 -15 8 3 14 -3 14 -16 1 -11 7 -25 14 -31 9
-8 10 -8 5 1 -4 7 17 0 45 -15 29 -15 55 -34 57 -42 3 -8 1 -12 -3 -8 -14 13
-33 -35 -23 -55 7 -14 5 -23 -9 -34 -10 -8 -13 -12 -7 -9 7 3 14 -1 17 -8 3
-8 1 -17 -6 -19 -9 -3 -8 -8 2 -18 12 -12 13 -12 6 0 -6 10 -4 12 4 7 7 -5 10
-14 7 -21 -3 -10 2 -12 20 -9 13 2 24 0 24 -6 0 -6 -5 -8 -11 -4 -7 4 -10 1
-7 -7 3 -8 10 -13 16 -12 6 2 9 -4 6 -12 -4 -10 0 -13 15 -10 19 3 20 1 10
-17 -9 -16 -8 -19 2 -13 9 6 11 2 7 -13 -3 -12 -3 -21 1 -20 20 2 32 -4 28
-14 -2 -7 3 -18 11 -24 9 -6 16 -19 18 -28 2 -14 0 -14 -19 -1 -12 8 -26 15
-32 15 -5 0 -4 -4 4 -9 13 -8 -22 -8 -116 1 -9 1 -10 5 -2 14 7 8 6 14 -2 20
-8 5 -9 3 -4 -5 9 -15 -36 -11 -47 4 -4 6 -8 2 -8 -7 0 -10 -8 -18 -17 -18
-15 0 -16 -2 -3 -10 13 -9 13 -10 0 -10 -13 0 -13 -2 0 -9 8 -6 18 -7 22 -5
13 8 9 -11 -4 -25 -11 -11 -10 -12 1 -6 11 6 13 4 8 -8 -4 -10 -1 -17 6 -17 8
0 6 -4 -3 -10 -11 -7 -11 -10 -2 -10 7 0 10 -4 7 -10 -9 -14 8 -12 24 3 11 10
11 8 2 -10 -8 -15 -8 -23 -1 -24 5 -1 15 -3 20 -4 6 -1 12 -3 15 -4 3 0 1 -10
-5 -20 -9 -17 -7 -19 11 -16 12 3 19 2 15 -2 -3 -3 0 -13 7 -21 10 -13 9 -14
-1 -8 -11 7 -11 4 -1 -12 7 -12 18 -18 24 -15 5 4 7 3 3 -2 -4 -4 -3 -14 3
-22 6 -7 8 -13 3 -13 -5 0 -9 -26 -9 -58 0 -50 3 -58 19 -60 11 0 23 -7 28
-14 7 -10 11 -9 22 5 7 9 18 17 24 17 7 0 9 7 5 18 -6 15 -5 15 10 3 18 -14
20 -12 19 29 -2 47 -6 69 -14 64 -16 -10 -28 7 -18 26 8 14 6 20 -8 23 -15 4
-15 5 2 6 16 1 16 3 -5 20 -19 15 -21 21 -11 33 6 8 9 17 6 21 -3 3 4 10 15
17 15 8 21 8 21 0 0 -6 4 -8 10 -5 6 4 7 -1 3 -11 -5 -13 -3 -15 8 -9 12 7 12
6 -1 -11 -8 -10 -10 -16 -6 -12 5 5 14 -2 20 -15 8 -14 22 -23 42 -25 22 -2
35 -11 42 -27 10 -21 9 -23 -6 -19 -14 5 -13 3 2 -10 18 -14 15 -21 -7 -17 -5
1 -6 -3 -2 -9 3 -5 3 -15 -1 -21 -4 -8 -9 -7 -15 2 -6 10 -9 8 -9 -8 0 -13 -4
-23 -8 -23 -5 0 -17 -7 -28 -16 -10 -8 -14 -13 -8 -10 13 6 13 -39 0 -51 -5
-5 -6 -2 -1 6 5 9 4 12 -3 7 -7 -4 -12 -2 -12 5 0 7 -3 10 -6 6 -6 -6 20 -49
27 -44 3 1 -4 -7 -16 -17 -16 -16 -17 -18 -3 -13 10 3 20 2 23 -4 4 -5 10 -7
15 -4 4 3 11 -2 14 -11 3 -8 11 -12 16 -9 8 5 7 12 -2 23 -12 14 -10 14 12 2
22 -12 24 -12 12 2 -8 10 -9 19 -4 22 6 3 15 -1 22 -9 10 -12 16 -13 27 -3 12
9 14 9 13 -3 -5 -35 0 -43 15 -23 15 18 15 18 8 0 -4 -13 -3 -17 5 -12 8 5 10
1 5 -10 -5 -12 -3 -15 6 -9 10 6 11 3 1 -15 -11 -21 -10 -22 14 -18 21 4 24 3
15 -8 -11 -13 -5 -19 15 -15 5 1 4 -5 -3 -13 -17 -20 -4 -38 20 -31 14 5 19 2
19 -12 0 -11 6 -25 13 -32 9 -11 9 -12 0 -7 -9 5 -11 2 -7 -9 4 -11 10 -12 18
-6 9 7 12 3 12 -14 0 -13 -2 -23 -5 -23 -20 2 -22 -5 -5 -24 10 -13 12 -17 4
-10 -8 6 -19 12 -24 12 -6 0 -3 -5 7 -11 9 -6 15 -14 13 -18 -6 -10 25 -8 42
3 7 4 12 2 12 -6 0 -9 3 -9 10 2 6 9 10 10 10 3 0 -19 -12 -43 -22 -43 -5 0
-6 5 -2 12 5 7 3 8 -5 4 -9 -6 -9 -12 3 -25 9 -10 13 -22 9 -26 -5 -5 -1 -4 9
3 12 10 18 10 24 1 4 -8 3 -9 -4 -5 -7 4 -13 2 -13 -3 -1 -6 -2 -17 -3 -23 -1
-7 3 -17 9 -21 6 -5 4 -7 -5 -4 -8 2 -14 10 -13 16 2 6 -2 11 -7 11 -13 0 -13
-17 1 -25 6 -4 8 -13 6 -19 -3 -7 1 -13 9 -14 8 -1 21 -3 29 -4 10 -1 12 -5 4
-14 -7 -8 -6 -14 3 -17 8 -4 7 -6 -4 -6 -11 -1 -15 -6 -12 -16 4 -8 10 -12 15
-9 5 3 9 0 9 -5 0 -6 -6 -11 -12 -11 -9 0 -8 -4 2 -10 12 -8 13 -11 1 -19 -9
-6 -10 -10 -2 -12 9 -3 9 -12 2 -31 -7 -19 -7 -29 1 -34 7 -5 8 -3 3 6 -5 8
-4 11 3 6 12 -7 5 -36 -9 -36 -6 0 -1 -10 11 -22 11 -12 20 -28 20 -36 0 -8 8
-21 18 -28 16 -13 16 -14 -3 -8 -19 5 -19 5 1 -8 12 -7 19 -19 17 -26 -3 -7 1
-11 9 -10 8 2 13 -6 13 -19 0 -12 5 -26 9 -30 5 -5 6 -2 1 6 -6 10 -4 12 4 7
9 -6 9 -11 0 -22 -6 -8 -8 -14 -4 -14 4 0 2 -6 -4 -14 -9 -11 -9 -16 0 -22 8
-5 9 -3 4 6 -5 9 -4 11 3 6 9 -5 8 -12 -1 -28 -9 -16 -9 -22 1 -25 6 -3 12
-11 12 -19 0 -10 5 -12 13 -8 7 5 7 1 -2 -10 -13 -15 -12 -20 12 -42 15 -14
29 -20 32 -14 13 20 25 -1 13 -23 -10 -19 -9 -20 4 -9 13 10 17 10 22 -3 3 -9
2 -14 -3 -11 -5 3 -11 -10 -13 -30 -3 -25 1 -38 11 -44 14 -8 14 -9 1 -10 -10
0 -15 -10 -15 -30 0 -27 6 -34 26 -32 4 1 5 -8 2 -18 -3 -12 0 -20 6 -20 7 0
10 -4 7 -9 -3 -5 1 -12 10 -15 8 -3 13 -10 10 -15 -4 -5 -3 -11 1 -14 5 -2 3
-3 -3 -1 -6 1 -17 -2 -25 -8 -11 -8 -11 -9 3 -5 9 3 22 -1 29 -9 10 -12 9 -14
-7 -9 -13 4 -12 2 4 -6 12 -7 22 -18 22 -26 0 -8 5 -11 10 -8 6 3 10 2 10 -4
0 -5 -6 -12 -12 -14 -10 -4 -10 -6 0 -6 6 -1 12 -7 12 -14 0 -7 10 -17 23 -22
12 -6 21 -16 20 -23 -2 -7 1 -12 6 -12 5 0 8 -18 7 -40 -2 -34 0 -38 13 -27
11 9 13 9 8 0 -4 -6 -1 -18 7 -26 11 -11 12 -17 3 -26 -8 -8 -8 -11 1 -11 10
0 10 -5 1 -21 -6 -13 -7 -19 -1 -15 6 3 12 1 14 -5 3 -9 9 -9 25 0 16 8 24 8
29 0 4 -8 9 -7 15 2 6 9 8 3 5 -18 -2 -25 0 -30 12 -25 10 3 13 1 8 -6 -3 -6
-2 -13 4 -17 5 -3 10 0 10 7 0 8 3 9 8 3 11 -15 32 -17 48 -4 10 8 14 8 14 1
0 -6 15 -10 34 -8 25 1 33 -1 29 -11 -3 -8 0 -13 8 -11 8 2 15 -7 17 -20 3
-23 4 -23 19 -5 8 10 12 13 9 6 -9 -18 11 -25 35 -12 15 8 19 8 15 0 -10 -16
10 -13 27 4 8 8 18 11 23 7 5 -4 3 1 -4 10 -11 14 -10 16 8 11 16 -4 19 -2 14
11 -5 12 -2 15 10 10 10 -4 16 -1 16 7 0 11 3 11 10 -1 8 -13 10 -12 11 5 1
11 1 23 0 27 0 4 7 4 16 1 25 -10 6 16 -21 28 -18 8 -16 9 9 5 17 -3 24 -3 17
0 -6 3 -10 10 -7 15 4 5 -1 6 -10 3 -11 -5 -14 -2 -8 12 5 13 3 15 -8 10 -8
-4 -6 -1 3 7 10 8 14 18 10 22 -4 5 2 5 13 1 16 -6 17 -5 8 5 -10 10 -9 15 5
26 16 14 16 14 -2 9 -16 -5 -17 -4 -7 8 7 8 20 12 29 9 13 -4 14 -3 4 5 -8 5
-13 12 -13 16 3 20 0 26 -11 20 -8 -5 -7 0 2 11 12 15 12 17 1 10 -11 -6 -13
-2 -7 19 4 18 3 25 -4 21 -16 -10 -12 1 7 16 11 10 14 10 9 2 -4 -7 -2 -13 3
-13 10 0 12 7 10 27 -1 13 36 21 43 9 5 -7 8 -6 8 3 0 8 8 20 18 28 9 8 12 12
6 9 -7 -3 -15 1 -18 10 -8 21 -8 24 5 24 5 0 7 -5 3 -12 -4 -7 -3 -8 5 -4 6 4
8 12 5 18 -11 17 -11 82 -1 96 7 9 5 11 -8 6 -15 -6 -16 -4 -6 15 9 17 9 21
-1 19 -7 -2 -12 3 -10 10 1 8 -2 11 -8 7 -6 -4 -10 5 -11 22 0 25 -1 26 -9 8
-8 -18 -9 -17 -9 8 -1 16 -7 27 -15 27 -16 0 -31 34 -21 50 3 5 4 10 0 10 -3
0 -10 -10 -15 -22 l-9 -23 0 24 c-1 20 -3 21 -16 11 -12 -10 -16 -9 -21 4 -3
9 -10 13 -16 10 -5 -3 -4 3 3 14 7 12 17 18 22 15 5 -3 3 -9 -4 -14 -10 -6
-10 -9 -2 -9 7 0 17 8 22 18 6 10 11 12 11 4 0 -7 5 -10 10 -7 8 5 8 11 0 20
-8 10 -8 15 1 21 8 4 9 3 5 -4 -5 -8 -2 -10 8 -6 18 7 11 24 -10 24 -8 0 -14
10 -14 23 0 18 -2 19 -10 7 -8 -13 -10 -12 -10 3 0 21 -24 49 -34 40 -3 -4 -6
-1 -6 5 0 7 5 12 10 12 6 0 10 5 10 11 0 5 -4 8 -9 5 -10 -6 -25 24 -16 32 3
3 5 0 5 -6 0 -21 16 -13 17 8 1 11 -2 18 -8 15 -5 -4 -9 -1 -9 5 0 6 -4 9 -8
6 -5 -3 -9 1 -9 8 0 8 7 12 16 10 9 -2 2 2 -15 10 -28 14 -62 45 -56 53 8 11
0 14 -12 4 -10 -9 -16 -8 -26 4 -7 8 -17 12 -23 8 -6 -3 -7 -1 -3 6 6 9 11 9
22 0 8 -7 14 -7 14 -1 0 10 -29 26 -42 24 -11 -3 -5 21 7 31 6 6 5 10 -3 14
-10 4 -9 9 5 20 10 8 13 12 6 9 -13 -7 -12 19 2 31 4 4 5 2 0 -6 -5 -9 -3 -12
6 -9 12 4 15 14 10 48 0 6 -8 10 -16 10 -10 0 -15 10 -15 29 0 24 -5 30 -30
35 -26 5 -30 10 -30 37 0 18 -3 30 -6 26 -9 -9 -56 42 -49 53 4 6 -1 7 -12 3
-16 -6 -17 -5 -3 13 8 10 11 16 6 12 -14 -12 -35 15 -25 33 4 9 5 20 1 24 -4
4 3 3 15 -3 18 -10 20 -9 16 8 -3 11 -10 17 -16 13 -6 -3 -7 -1 -3 5 4 7 14
12 23 12 9 0 13 6 10 15 -4 8 -1 17 5 21 7 5 8 2 3 -7 -5 -8 -4 -10 0 -6 14
12 15 38 2 30 -7 -4 -6 1 2 10 12 15 11 17 -4 17 -17 0 -17 1 1 21 19 22 19
22 -6 15 -14 -4 -20 -4 -14 1 18 13 24 64 8 70 -8 3 -12 9 -9 13 8 13 -6 40
-18 33 -6 -4 -8 0 -4 10 4 11 1 17 -8 17 -8 0 -12 8 -10 20 2 11 1 19 -3 19
-19 -3 -33 2 -28 10 3 5 -1 12 -10 15 -8 3 -12 2 -9 -4 3 -6 4 -10 1 -10 -3 0
-10 9 -16 20 -9 16 -8 19 7 14 17 -5 17 -5 0 6 -10 6 -14 16 -10 23 4 7 -1 6
-11 -2 -15 -13 -18 -12 -23 7 -3 12 -9 22 -13 22 -4 0 -7 8 -6 18 0 9 -3 33
-7 52 -6 28 -10 32 -18 20 -8 -12 -9 -10 -4 8 5 17 2 22 -12 23 -16 0 -16 1 2
9 11 5 14 9 6 9 -10 1 -11 4 -2 15 9 11 9 16 0 22 -8 4 -9 3 -5 -4 5 -8 1 -10
-10 -5 -11 4 -13 8 -6 11 7 2 12 8 12 14 0 6 -6 8 -14 5 -10 -4 -13 0 -11 14
2 11 0 17 -5 14 -5 -3 -11 4 -15 15 -3 11 -13 20 -21 20 -9 0 -12 5 -8 12 5 8
2 9 -9 5 -13 -5 -17 -1 -17 14 0 15 -5 19 -15 15 -13 -4 -14 -2 -5 14 9 16 7
22 -5 26 -9 4 -14 13 -10 21 4 11 1 13 -12 9 -15 -6 -16 -5 -5 5 14 15 16 33
2 24 -14 -9 -13 8 2 23 16 16 -4 16 -21 0 -10 -9 -12 -9 -7 -1 3 6 -2 18 -11
25 -22 16 -31 54 -11 42 9 -5 8 -2 -2 11 -8 10 -10 16 -5 13 6 -4 19 0 30 8
10 8 14 14 8 14 -13 0 -12 18 1 39 7 10 6 12 -4 6 -10 -6 -12 -4 -7 7 3 9 0
21 -6 27 -9 9 -7 11 8 6 11 -4 16 -3 10 2 -6 4 -16 21 -23 36 -9 20 -17 27
-29 23 -13 -5 -14 -4 -3 9 11 13 10 14 -2 10 -11 -5 -15 1 -15 19 0 16 4 23
11 19 7 -4 6 -1 -1 8 -8 10 -11 35 -8 67 2 28 0 54 -6 57 -14 9 -11 27 4 19 7
-4 9 -3 4 2 -5 5 -13 10 -18 10 -5 1 -13 2 -18 3 -5 0 -17 8 -26 17 -13 14
-14 19 -3 25 10 7 10 9 -2 9 -13 0 -13 1 0 10 13 8 12 10 -2 10 -10 0 -18 7
-18 16 0 8 -3 13 -7 11 -5 -3 -17 4 -27 14 -14 13 -15 19 -6 19 9 0 7 5 -6 15
-19 15 -19 15 1 8 16 -6 18 -4 8 8 -6 8 -11 18 -11 24 1 11 -53 44 -63 39 -8
-4 -5 29 5 44 4 6 4 16 1 22 -4 6 1 7 12 3 15 -6 16 -5 5 9 -11 14 -10 16 10
11 17 -3 19 -2 9 5 -7 5 -11 15 -7 21 4 6 2 9 -7 6 -7 -3 -22 4 -32 15 -19 20
-18 21 1 15 13 -4 11 -2 -4 7 -15 7 -22 18 -19 30 5 17 -5 22 -41 21 -7 -1
-11 2 -8 5 3 3 1 11 -5 18 -6 8 -7 14 0 18 6 4 1 24 -13 50 -22 41 -22 44 -6
56 19 13 20 26 6 49 -7 11 -10 11 -17 0 -6 -11 -9 -10 -15 4 -5 14 -9 15 -23
5 -9 -7 -13 -8 -9 -4 4 5 2 16 -5 24 -10 13 -9 14 2 7 11 -6 13 -4 8 8 -3 10
-2 17 4 17 6 0 3 10 -5 22 -14 19 -14 24 -1 38 13 15 13 17 0 17 -8 0 -11 -5
-8 -10 3 -6 1 -7 -5 -3 -6 3 -9 15 -7 25 2 11 -3 22 -11 25 -10 4 -12 2 -8 -6
4 -7 3 -8 -4 -4 -7 4 -12 14 -12 22 0 8 -6 14 -12 14 -9 0 -8 4 2 11 12 9 11
10 -7 6 -15 -3 -20 -1 -16 9 3 8 0 14 -7 14 -6 0 -8 5 -5 10 3 6 2 10 -4 10
-5 0 -13 -4 -16 -10 -8 -12 -32 8 -32 27 0 9 7 11 20 7 13 -4 17 -2 13 5 -4 6
-2 11 3 11 6 0 11 5 11 11 0 5 -5 7 -12 3 -7 -4 -8 -3 -4 4 4 6 12 10 19 8 7
-1 9 -1 5 1 -5 3 -8 12 -8 21 0 13 -2 14 -9 4 -6 -10 -10 -9 -14 7 -3 12 -1
19 4 15 5 -3 6 2 3 10 -3 9 -11 16 -17 16 -6 0 -19 8 -29 17 -18 16 -18 16
-12 -3 4 -10 4 -16 0 -13 -9 9 -17 51 -7 45 4 -3 7 6 7 19 0 13 -5 23 -10 22
-6 -1 -10 3 -9 10 2 9 -4 10 -20 4 -20 -8 -22 -5 -22 20 -1 28 -1 28 25 12 14
-9 22 -12 17 -8 -4 5 0 16 8 26 15 15 14 19 -11 38 -23 18 -24 21 -8 21 11 0
15 3 9 8 -16 11 -12 37 6 35 9 -2 15 5 15 16 0 15 -4 17 -16 11 -13 -7 -16 -2
-15 35 0 34 -3 41 -15 37 -13 -5 -13 -4 0 13 8 10 10 16 4 12 -6 -3 -19 0 -29
7 -14 10 -15 15 -5 21 9 6 11 4 5 -5 -5 -9 -4 -11 4 -6 8 5 5 16 -10 37 -12
17 -18 33 -15 36 3 3 1 12 -5 20 -9 10 -8 13 0 13 7 0 9 5 4 13 -4 6 -6 22 -4
35 1 13 -3 30 -11 39 -11 14 -11 16 2 11 11 -4 16 0 16 12 0 10 -6 16 -13 13
-9 -4 -11 0 -7 11 3 9 10 13 16 10 5 -3 4 4 -4 15 -11 18 -11 23 2 31 8 5 10
10 5 10 -6 0 -11 9 -11 20 0 11 5 20 11 21 5 0 1 4 -10 9 -19 8 -19 9 -1 9 14
1 16 4 7 15 -6 7 -9 22 -5 32 3 12 3 14 -3 8 -6 -9 -11 -8 -21 2 -7 7 -12 17
-12 21 0 5 -4 9 -10 9 -21 3 -22 4 -10 19 10 12 9 15 -5 15 -14 0 -15 3 -5 15
11 13 10 14 -4 9 -10 -4 -16 -1 -16 7 0 11 -3 11 -10 -1 -8 -13 -11 -11 -16 8
-4 12 -11 22 -18 22 -6 0 -4 5 4 10 12 8 11 10 -7 10 -13 0 -23 5 -23 11 0 5
-4 7 -10 4 -5 -3 -10 -1 -10 5 0 6 -5 8 -12 4 -8 -5 -9 -2 -5 9 3 9 1 19 -5
23 -7 4 -8 3 -4 -4 4 -7 2 -12 -3 -12 -6 0 -11 4 -11 10 0 17 -45 51 -62 46
-10 -2 -15 0 -12 5 3 6 -5 7 -20 3 -18 -4 -26 -2 -26 7 0 11 -3 11 -10 -1 -7
-11 -10 -11 -10 -2 0 7 -4 11 -9 7 -5 -3 -11 5 -13 17 -2 13 -7 22 -13 20 -5
-2 -9 -10 -7 -18 3 -12 0 -13 -17 -2 -11 6 -19 14 -19 17 2 19 -4 24 -12 11
-8 -13 -10 -12 -10 4 0 12 -5 16 -15 13 -8 -4 -17 -2 -21 4 -3 6 -12 8 -19 5
-8 -3 -15 0 -17 5 -2 6 -14 1 -27 -10 -21 -18 -41 -20 -41 -5 0 3 5 2 12 -2 7
-4 8 -3 4 5 -4 6 -11 9 -16 6 -5 -3 -11 -1 -15 5 -4 6 -11 8 -16 5 -5 -4 -9
-1 -9 5 0 6 -5 8 -12 4 -8 -5 -9 -2 -5 9 6 15 -2 17 -61 16 -49 -1 -60 -3 -42
-9z m-208 -162 c-9 -9 -9 -15 1 -27 11 -14 10 -14 -6 -2 -13 10 -15 17 -6 27
6 8 14 14 17 14 3 0 1 -5 -6 -12z m-235 -165 c-4 -3 -1 -13 6 -22 11 -14 10
-14 -5 -2 -21 15 -23 31 -6 31 6 0 8 -3 5 -7z m-37 -277 c0 -3 -4 -8 -10 -11
-5 -3 -10 -1 -10 4 0 6 5 11 10 11 6 0 10 -2 10 -4z m-66 -97 c-3 -5 -10 -7
-15 -3 -5 3 -7 10 -3 15 3 5 10 7 15 3 5 -3 7 -10 3 -15z m1386 -324 c-7 -9
-15 -13 -19 -10 -3 3 1 10 9 15 21 14 24 12 10 -5z m260 -569 c0 -2 -8 -10
-17 -17 -16 -13 -17 -12 -4 4 13 16 21 21 21 13z m-1127 -151 c-3 -9 -8 -14
-10 -11 -3 3 -2 9 2 15 9 16 15 13 8 -4z m-1059 -371 c5 -14 4 -15 -9 -4 -17
14 -19 20 -6 20 5 0 12 -7 15 -16z m1376 -4 c0 -5 -5 -10 -11 -10 -5 0 -7 5
-4 10 3 6 8 10 11 10 2 0 4 -4 4 -10z m-477 -155 c4 -8 3 -16 -1 -19 -4 -3 -9
4 -9 15 -2 23 3 25 10 4z m1047 -515 c0 -5 -2 -10 -4 -10 -3 0 -8 5 -11 10 -3
6 -1 10 4 10 6 0 11 -4 11 -10z m-2420 -134 c0 -2 -7 -7 -16 -10 -8 -3 -12 -2
-9 4 6 10 25 14 25 6z m2495 -96 c3 -6 -1 -7 -9 -4 -18 7 -21 14 -7 14 6 0 13
-4 16 -10z m79 -102 c-5 -8 -2 -9 9 -5 11 4 17 1 17 -9 0 -8 4 -13 8 -10 4 2
13 -4 20 -14 9 -15 8 -22 -5 -36 -11 -11 -18 -13 -21 -5 -2 6 -7 9 -10 7 -4
-2 -13 2 -20 10 -10 11 -10 14 0 14 8 0 6 5 -5 11 -13 8 -15 14 -7 30 6 10 13
19 16 19 3 0 2 -5 -2 -12z m-2721 -123 c-3 -9 -8 -14 -10 -11 -3 3 -2 9 2 15
9 16 15 13 8 -4z m2724 -30 c0 -8 -4 -12 -9 -9 -4 3 -8 9 -8 15 0 5 4 9 8 9 5
0 9 -7 9 -15z m-3050 -290 c0 -8 -4 -12 -9 -9 -5 3 -6 10 -3 15 9 13 12 11 12
-6z m-93 -163 c2 -4 -5 -9 -17 -9 -17 -2 -19 0 -7 7 18 12 18 12 24 2z m43
-71 c0 -11 -5 -17 -9 -15 -4 3 -8 -4 -8 -15 0 -11 -5 -23 -12 -27 -7 -5 -9 -2
-4 7 4 8 0 5 -8 -5 -15 -18 -16 -18 -16 -2 0 9 -4 14 -10 11 -15 -9 -12 4 4
20 7 8 17 11 21 7 5 -4 6 0 2 9 -4 13 -1 16 14 12 10 -3 19 0 19 6 0 6 2 11 4
11 3 0 4 -9 3 -19z m4108 -499 c-3 -3 -11 0 -18 7 -9 10 -8 11 6 5 10 -3 15
-9 12 -12z m-601 -18 c3 -8 2 -12 -4 -9 -6 3 -10 10 -10 16 0 14 7 11 14 -7z
m-3534 -469 c7 -9 8 -15 2 -15 -5 0 -12 7 -16 15 -3 8 -4 15 -2 15 2 0 9 -7
16 -15z m890 -79 c0 -2 -7 -7 -16 -10 -8 -3 -12 -2 -9 4 6 10 25 14 25 6z
m110 -10 c0 -3 -4 -8 -10 -11 -5 -3 -10 -1 -10 4 0 6 5 11 10 11 6 0 10 -2 10
-4z m-95 -16 c3 -5 1 -10 -4 -10 -6 0 -11 5 -11 10 0 6 2 10 4 10 3 0 8 -4 11
-10z"/>
<path d="M4791 8137 c2 -1 13 -9 24 -17 19 -14 19 -14 6 3 -7 9 -18 17 -24 17
-6 0 -8 -1 -6 -3z"/>
<path d="M4910 8113 c0 -16 9 -16 39 1 l25 14 -32 -1 c-18 -1 -32 -7 -32 -14z"/>
<path d="M4941 8101 c-9 -6 -10 -11 -2 -15 6 -4 9 -13 5 -19 -3 -7 2 -3 10 7
26 32 18 47 -13 27z"/>
<path d="M3999 7888 c-6 -11 -5 -48 1 -48 4 0 8 11 8 25 0 21 -5 32 -9 23z"/>
<path d="M4746 6438 c3 -5 10 -6 15 -3 13 9 11 12 -6 12 -8 0 -12 -4 -9 -9z"/>
<path d="M5667 6399 c7 -7 15 -10 18 -7 3 3 -2 9 -12 12 -14 6 -15 5 -6 -5z"/>
<path d="M10485 6361 c6 -11 2 -13 -19 -7 -15 4 -26 2 -26 -4 0 -5 -5 -10 -11
-10 -5 0 -8 4 -5 9 4 5 -3 7 -14 4 -11 -3 -20 -8 -20 -12 0 -13 -39 -9 -44 5
-3 8 -11 14 -18 14 -8 0 -9 -3 -3 -8 6 -4 11 -14 13 -22 3 -12 1 -12 -9 -3
-10 10 -15 9 -24 -4 -10 -13 -14 -13 -20 -3 -6 9 -4 11 5 5 8 -5 11 -4 6 3 -7
12 -36 5 -36 -9 0 -11 -23 -7 -32 6 -5 6 -8 5 -8 -3 0 -8 -5 -10 -12 -6 -8 5
-7 0 2 -11 10 -12 10 -16 2 -11 -7 4 -20 2 -29 -6 -12 -9 -15 -9 -9 0 10 16
-2 15 -19 -2 -8 -7 -11 -17 -7 -21 4 -5 1 -5 -6 -1 -7 5 -10 13 -5 20 4 7 -3
0 -16 -14 -13 -14 -20 -19 -17 -12 9 16 -2 15 -19 -2 -8 -7 -11 -17 -7 -21 4
-5 -1 -5 -10 -2 -13 5 -18 1 -18 -11 0 -15 -2 -15 -10 -2 -8 13 -10 13 -10 -2
0 -9 -5 -20 -12 -24 -7 -5 -8 -3 -3 7 8 12 6 12 -8 0 -9 -7 -14 -18 -10 -24 4
-6 0 -8 -9 -4 -22 8 -30 -3 -15 -21 9 -13 9 -14 0 -8 -7 4 -21 2 -30 -4 -17
-11 -17 -11 0 -6 9 3 17 1 17 -4 0 -6 -5 -10 -11 -10 -5 0 -8 -4 -4 -9 3 -5 0
-13 -6 -17 -8 -4 -9 -3 -5 4 4 7 3 12 -2 12 -6 0 -13 -7 -16 -16 -9 -23 -8
-26 7 -19 6 4 3 0 -7 -9 -10 -8 -22 -13 -26 -11 -4 2 -5 -7 -2 -20 2 -14 -2
-33 -9 -42 -10 -12 -10 -14 -1 -9 6 4 12 2 12 -3 0 -6 -4 -11 -10 -11 -5 0
-10 -7 -10 -16 0 -9 -5 -12 -12 -8 -7 4 -8 3 -4 -5 6 -9 11 -9 21 -1 10 8 15
8 21 -1 4 -8 3 -9 -5 -5 -6 4 -14 0 -18 -9 -3 -10 0 -21 8 -26 10 -6 10 -9 2
-9 -7 0 -13 -7 -13 -15 0 -8 -6 -15 -12 -15 -9 0 -8 -4 2 -10 13 -9 13 -10 0
-10 -9 0 -11 -3 -4 -8 17 -11 24 -41 12 -48 -6 -4 -8 -3 -4 4 3 6 2 13 -3 16
-5 4 -8 -2 -6 -11 1 -10 9 -17 17 -15 8 1 15 -5 15 -13 0 -10 -6 -14 -16 -10
-9 3 -5 -4 9 -15 14 -11 18 -18 9 -15 -10 4 -16 0 -16 -10 0 -9 6 -14 13 -11
8 3 10 -2 6 -16 -4 -16 -2 -19 8 -13 8 5 11 4 7 -2 -4 -6 0 -16 8 -23 8 -7 12
-16 9 -21 -3 -5 2 -12 10 -15 9 -3 16 -12 16 -20 0 -8 5 -14 10 -14 6 0 10 -7
10 -15 0 -14 13 -20 34 -16 5 1 3 -5 -4 -14 -7 -8 -10 -18 -6 -22 3 -3 6 -2 6
4 0 5 7 10 15 10 8 0 15 -6 15 -12 0 -7 8 -19 18 -28 15 -13 21 -14 32 -4 10
9 11 9 6 0 -4 -7 -2 -13 4 -13 6 0 9 -4 5 -9 -3 -6 4 -8 15 -6 14 3 20 -1 20
-13 0 -15 2 -15 10 -2 6 10 10 11 10 3 0 -7 7 -13 16 -13 8 0 12 -5 8 -11 -4
-8 0 -8 15 0 15 8 21 9 21 1 0 -6 4 -9 9 -5 5 3 12 1 16 -5 4 -6 11 -8 16 -5
5 3 6 -1 3 -10 -5 -11 -2 -14 10 -9 9 3 24 0 33 -7 14 -12 16 -12 9 1 -4 8 3
4 15 -10 14 -16 20 -19 16 -8 -4 12 -2 15 9 11 7 -3 14 -10 14 -15 0 -6 8 -4
17 3 13 11 15 11 9 1 -5 -9 -3 -13 5 -11 27 3 40 -1 34 -11 -3 -5 -1 -10 4
-10 6 0 11 5 11 11 0 6 8 3 18 -8 9 -10 13 -12 7 -4 -8 12 -7 12 10 4 11 -6
23 -12 27 -12 24 -4 37 -14 31 -24 -4 -7 0 -8 12 -3 12 4 22 0 32 -13 7 -11
20 -18 28 -15 10 4 18 -3 25 -20 5 -14 12 -26 15 -26 4 0 4 4 1 8 -3 5 0 9 7
9 16 0 17 -39 3 -50 -6 -5 0 -5 14 -1 23 6 24 6 10 -11 -9 -11 -10 -16 -2 -11
13 8 13 8 16 -45 1 -25 -2 -35 -10 -32 -7 2 -15 -1 -20 -8 -4 -8 -3 -10 4 -5
16 10 15 -2 -2 -19 -7 -8 -17 -11 -22 -7 -5 4 -2 -1 6 -11 7 -10 9 -17 4 -16
-15 4 -64 -20 -64 -31 0 -5 -4 -10 -10 -10 -5 0 -7 8 -3 18 5 14 3 13 -10 -3
-9 -11 -17 -16 -17 -11 0 5 -7 3 -16 -5 -9 -7 -18 -9 -22 -3 -8 11 -32 11 -49
1 -7 -5 -13 -4 -13 2 0 5 -11 8 -25 7 -15 -2 -22 1 -18 7 4 6 0 8 -10 4 -10
-4 -16 -2 -14 6 1 7 -6 11 -17 9 -11 -2 -15 1 -11 7 3 6 2 11 -4 11 -10 0 -27
39 -23 53 1 5 -2 6 -8 2 -5 -3 -10 2 -10 12 0 15 -2 16 -10 3 -13 -20 -13 -4
0 21 6 11 7 19 3 18 -21 -4 -25 2 -10 14 15 11 14 12 -12 12 -16 0 -33 -3 -37
-7 -4 -4 -12 -4 -18 1 -6 4 -20 11 -30 15 -20 7 -20 7 0 -16 11 -13 12 -18 3
-10 -9 6 -19 9 -22 5 -4 -3 -7 -2 -7 4 0 16 -34 11 -47 -6 -11 -14 -12 -13 -8
7 4 21 3 21 -17 7 -17 -11 -25 -12 -36 -3 -19 17 -53 17 -59 2 -4 -11 -8 -11
-20 1 -17 17 -33 20 -33 5 0 -5 -6 -7 -14 -4 -8 3 -17 1 -21 -5 -3 -6 -12 -11
-18 -11 -8 0 -8 3 1 9 11 7 11 9 -2 14 -9 4 -15 1 -13 -6 1 -7 -6 -11 -16 -11
-13 1 -15 -1 -8 -10 7 -9 7 -17 -2 -26 -9 -10 -9 -11 1 -6 6 4 12 2 12 -3 0
-6 -6 -11 -12 -12 -7 0 -4 -4 6 -8 11 -4 20 -15 22 -24 1 -10 -2 -15 -7 -11
-5 3 -9 -2 -9 -11 0 -9 4 -13 10 -10 5 3 9 -2 8 -12 -3 -38 3 -53 20 -54 14 0
14 -2 -3 -9 -18 -8 -18 -9 5 -9 20 -1 22 -3 10 -11 -13 -8 -12 -10 3 -10 10 0
15 -4 12 -10 -3 -5 -1 -10 4 -10 6 0 11 -5 11 -11 0 -5 -6 -7 -12 -3 -9 5 -8
2 1 -9 10 -13 17 -14 27 -7 10 9 11 7 7 -9 -5 -20 5 -27 31 -22 5 1 3 -6 -5
-15 -9 -12 -9 -15 -1 -10 7 4 12 2 12 -5 0 -8 4 -8 15 1 13 11 14 10 9 -5 -6
-14 -4 -16 7 -10 12 7 12 6 1 -7 -11 -14 -10 -16 7 -11 13 3 21 1 21 -6 0 -7
-4 -10 -8 -7 -5 3 -9 -1 -9 -9 0 -8 5 -11 11 -7 18 11 48 13 41 2 -3 -5 1 -10
9 -10 9 0 16 -8 16 -17 0 -15 2 -16 10 -3 9 14 15 7 11 -14 -1 -5 6 -3 15 5
12 9 15 9 10 2 -5 -9 0 -13 16 -15 13 0 29 -2 35 -2 7 -1 12 -6 10 -11 -1 -6
-6 -9 -10 -7 -5 1 -5 -3 -2 -9 5 -8 10 -8 18 0 15 15 30 14 21 -1 -4 -7 -4
-10 1 -6 4 4 15 2 23 -5 11 -8 14 -8 9 0 -4 6 -3 14 3 18 5 3 10 1 10 -5 0 -6
4 -9 8 -6 4 2 14 1 22 -4 9 -5 19 -5 27 2 9 7 14 6 19 -6 3 -9 10 -16 16 -16
5 0 7 4 4 9 -3 5 1 12 10 15 8 3 13 2 10 -2 -2 -4 -1 -14 5 -22 7 -12 9 -11 9
5 0 15 2 17 9 6 5 -8 11 -9 15 -3 8 13 46 11 46 -2 0 -5 3 -6 6 -3 4 3 16 1
28 -5 18 -10 19 -9 9 3 -10 12 -8 15 8 15 12 0 18 -5 14 -13 -3 -10 0 -11 14
-4 10 6 22 7 26 3 5 -4 5 -1 1 6 -4 7 -12 9 -18 6 -7 -4 -8 -2 -4 5 4 6 13 8
19 4 17 -10 70 -4 79 10 6 9 8 9 8 0 0 -18 33 -8 41 13 5 12 8 14 8 5 1 -12 4
-12 13 -3 16 16 31 15 23 0 -4 -7 3 -2 15 12 12 14 19 18 15 10 -5 -12 -4 -12
7 1 7 9 21 15 31 13 14 -2 17 2 12 14 -5 14 -4 15 6 5 7 -7 18 -13 23 -13 6 0
4 5 -4 10 -12 7 -10 11 10 18 14 5 29 7 34 4 5 -3 6 0 2 7 -4 6 -12 8 -18 5
-7 -4 -8 -2 -4 5 4 6 12 9 17 6 5 -4 9 -1 9 5 0 6 5 8 12 4 8 -5 9 -2 5 9 -6
15 6 21 34 19 3 0 11 8 18 20 9 14 9 18 1 13 -9 -6 -9 -2 -1 14 7 11 16 21 22
21 6 0 7 -5 3 -12 -4 -7 -3 -8 5 -4 9 6 9 11 1 21 -8 10 -7 14 2 17 10 4 10 9
-2 24 -14 18 -13 18 8 -1 17 -14 23 -16 20 -5 -2 8 -7 18 -13 22 -6 5 -3 8 7
8 12 0 15 5 11 17 -5 13 -2 15 13 10 18 -7 18 -6 -1 9 -20 16 -20 16 2 11 15
-3 20 -1 16 9 -3 8 -10 11 -16 7 -6 -4 -7 -1 -2 7 9 15 17 54 17 87 0 13 3 21
7 18 4 -2 8 2 8 10 0 8 -4 12 -9 9 -5 -3 -6 9 -3 26 4 22 2 29 -6 25 -8 -6 -8
-2 0 14 9 16 9 21 -1 21 -9 0 -9 3 2 10 13 8 12 10 -4 10 -19 0 -19 1 -2 13
17 13 18 14 2 20 -11 5 -15 3 -10 -5 4 -6 3 -8 -4 -5 -5 4 -8 17 -4 29 3 14 1
19 -6 14 -8 -5 -10 -1 -5 10 4 12 3 15 -5 10 -16 -10 -15 7 1 23 10 10 9 12
-3 9 -8 -2 -14 4 -15 12 0 8 -9 19 -21 25 -11 5 -19 16 -17 22 3 8 -3 11 -16
8 -13 -2 -18 1 -15 10 3 7 -4 18 -15 25 -12 6 -21 7 -21 3 0 -4 -5 0 -11 9 -5
9 -15 16 -22 14 -6 -1 -9 -1 -4 1 4 3 7 9 7 14 0 6 -4 7 -10 4 -5 -3 -10 -1
-10 5 0 6 -8 10 -17 9 -10 -1 -27 -1 -38 0 -17 1 -18 3 -5 11 12 8 11 10 -7
10 -13 0 -23 5 -23 12 0 9 -3 9 -11 1 -13 -13 -39 -6 -39 9 0 6 7 5 15 -2 13
-11 14 -10 10 2 -3 8 -18 16 -33 16 -41 2 -61 7 -69 17 -4 4 -2 5 6 0 9 -5 12
-4 7 3 -4 6 -14 8 -23 5 -11 -5 -14 -3 -8 6 6 10 3 11 -15 1 -20 -11 -22 -10
-16 5 6 16 4 16 -11 4 -9 -8 -14 -9 -10 -3 4 7 0 15 -9 18 -8 3 -12 2 -9 -4 3
-5 -8 -4 -26 2 -23 8 -27 13 -17 19 9 6 9 9 1 9 -6 0 -15 -4 -18 -10 -3 -5
-12 -10 -18 -10 -7 0 -6 4 3 11 12 8 10 9 -10 7 -19 -2 -25 1 -24 15 2 18 1
18 -19 0 -12 -10 -17 -12 -12 -4 6 11 4 13 -8 8 -12 -4 -14 -2 -10 10 4 11 2
14 -5 9 -7 -4 -12 -3 -12 2 0 6 -10 8 -22 4 -20 -5 -21 -3 -10 10 11 14 10 16
-7 11 -12 -3 -21 -1 -21 6 0 6 -7 11 -15 11 -13 0 -14 4 -4 23 12 21 11 21 -6
7 -17 -14 -18 -13 -12 4 7 17 6 17 -10 5 -11 -9 -14 -9 -9 -2 4 7 2 21 -4 32
-7 14 -7 22 2 27 7 5 8 3 3 -6 -6 -9 -4 -11 5 -5 10 6 9 11 -5 22 -11 7 -13
13 -7 13 8 0 11 10 8 26 -3 16 0 27 10 31 7 3 12 9 9 13 -3 4 4 10 15 13 11 3
20 12 20 21 0 9 5 16 11 16 5 0 7 -6 4 -12 -4 -7 0 -5 8 4 11 14 16 15 27 5
10 -9 11 -9 6 1 -4 6 -4 12 1 13 4 0 16 2 26 4 9 2 15 -1 11 -6 -3 -5 2 -9 10
-9 10 0 13 6 9 18 -4 11 1 9 16 -8 12 -14 20 -19 16 -12 -4 8 1 11 17 8 13 -3
26 -5 31 -5 4 -1 7 -9 8 -18 0 -15 2 -15 9 2 8 18 9 18 9 2 1 -14 7 -17 24
-13 12 3 17 3 10 0 -10 -4 -10 -8 0 -19 7 -7 16 -11 20 -8 5 3 3 -5 -4 -18
-11 -21 -10 -23 3 -11 13 10 15 9 13 -13 -3 -23 5 -30 28 -26 5 1 6 -3 2 -9
-3 -5 1 -13 10 -16 13 -5 13 -9 3 -23 -12 -15 -11 -15 7 -1 22 17 43 19 64 6
8 -6 12 -5 8 0 -3 6 32 9 84 9 75 0 88 -2 84 -15 -3 -9 1 -7 10 4 15 20 15 20
15 0 0 -11 3 -15 8 -8 12 19 50 23 56 7 5 -12 9 -13 21 -3 12 10 18 10 29 1
11 -9 16 -9 22 0 4 7 3 9 -4 5 -6 -3 -13 -2 -17 4 -3 5 0 10 8 10 8 0 18 7 21
16 5 13 4 14 -7 6 -10 -9 -14 -8 -14 3 0 8 5 15 11 15 5 0 1 6 -9 14 -18 13
-18 13 1 24 16 10 16 11 2 12 -12 0 -15 6 -10 22 4 16 2 19 -8 13 -8 -5 -11
-4 -7 3 10 15 -3 43 -17 35 -6 -4 -5 1 3 10 12 15 11 17 -5 18 -18 0 -18 1 0
8 19 7 19 8 -2 13 -13 4 -23 15 -23 27 -2 34 -4 39 -13 48 -5 5 -6 3 -2 -4 4
-7 3 -13 -3 -13 -5 0 -13 9 -16 20 -4 11 -11 18 -16 15 -5 -4 -9 1 -9 9 0 9
-5 16 -11 16 -5 0 -7 6 -3 13 6 8 3 8 -9 -1 -14 -12 -16 -11 -12 8 3 17 1 19
-9 11 -10 -9 -15 -7 -19 9 -3 14 -13 20 -32 20 -17 0 -24 4 -19 12 5 7 0 9
-14 6 -16 -5 -19 -2 -14 11 5 14 4 14 -13 1 -10 -8 -16 -10 -12 -4 4 7 -1 18
-10 25 -10 8 -14 9 -10 2 4 -6 3 -14 -2 -17 -14 -9 -21 20 -8 35 10 11 9 11
-4 1 -9 -6 -18 -9 -21 -7 -11 12 -48 14 -42 3 4 -6 -3 -4 -15 4 -17 12 -31 14
-53 8 -24 -8 -28 -7 -18 5 8 10 8 15 -1 21 -8 4 -9 3 -5 -4 4 -7 4 -12 -1 -13
-4 0 -18 -2 -31 -3 -16 -2 -21 1 -18 11 4 11 2 11 -12 4 -12 -7 -22 -5 -36 7
-12 11 -16 12 -11 3z m10 -21 c-3 -5 -12 -10 -18 -10 -7 0 -6 4 3 10 19 12 23
12 15 0z m230 -38 c-3 -3 -11 0 -18 7 -9 10 -8 11 6 5 10 -3 15 -9 12 -12z
m-665 -802 c0 -5 -2 -10 -4 -10 -3 0 -8 5 -11 10 -3 6 -1 10 4 10 6 0 11 -4
11 -10z m975 -89 c3 -5 0 -13 -6 -17 -7 -4 -9 -3 -5 4 3 5 0 13 -6 15 -9 4
-10 6 -1 6 6 1 14 -3 18 -8z m-425 -127 c0 -8 -19 -13 -24 -6 -3 5 1 9 9 9 8
0 15 -2 15 -3z m-649 -137 c-10 -9 -11 -8 -5 6 3 10 9 15 12 12 3 -3 0 -11 -7
-18z m63 7 c3 -8 2 -12 -4 -9 -6 3 -10 10 -10 16 0 14 7 11 14 -7z"/>
<path d="M820 6353 c0 -7 -7 -10 -17 -7 -15 5 -15 4 -3 -4 8 -6 18 -8 24 -5 5
3 6 1 3 -5 -8 -11 -47 -4 -47 9 0 4 -9 7 -19 6 -11 0 -18 -4 -15 -8 2 -4 -3
-9 -11 -13 -8 -3 -17 0 -21 6 -4 7 -3 8 4 4 7 -4 12 -2 12 3 0 16 -20 13 -26
-4 -8 -21 -25 -19 -18 3 4 11 -1 9 -16 -8 -12 -14 -19 -20 -16 -14 3 7 -9 10
-33 10 -27 -1 -38 -5 -37 -16 1 -11 -11 -15 -46 -15 -25 0 -46 -2 -46 -5 2
-28 -2 -32 -19 -19 -10 8 -14 9 -10 2 4 -6 3 -14 -3 -18 -5 -3 -10 -1 -10 5 0
6 -5 8 -10 5 -6 -4 -7 -12 -3 -18 4 -7 -2 -5 -12 3 -11 9 -16 10 -11 3 5 -9 1
-13 -11 -13 -14 0 -15 -2 -5 -9 11 -7 10 -10 -3 -15 -23 -8 -27 -8 -20 4 3 6
-1 7 -9 4 -9 -3 -14 -11 -13 -17 1 -7 -6 -11 -15 -9 -9 1 -20 -3 -24 -9 -4 -8
-3 -9 4 -5 7 4 12 2 12 -3 0 -6 -7 -11 -16 -11 -8 0 -13 -4 -9 -9 3 -5 0 -13
-6 -17 -7 -4 -9 -3 -5 4 3 6 2 13 -3 16 -12 8 -23 -22 -14 -37 4 -8 1 -7 -9 1
-13 10 -16 9 -21 -9 -4 -15 -11 -20 -22 -15 -9 3 -14 2 -10 -3 3 -5 2 -16 -1
-25 -5 -12 -10 -14 -19 -6 -11 9 -12 6 -8 -11 5 -17 3 -20 -7 -14 -10 6 -12 3
-8 -13 5 -16 2 -20 -13 -17 -17 3 -18 1 -7 -18 10 -20 10 -21 -6 -8 -9 8 -16
10 -15 5 5 -26 -2 -46 -14 -41 -10 4 -13 -2 -9 -20 3 -18 1 -24 -7 -19 -7 5
-11 -2 -11 -21 0 -22 -2 -25 -10 -13 -7 11 -10 7 -10 -18 0 -18 -3 -31 -7 -29
-5 3 -15 -2 -23 -11 -13 -14 -12 -15 3 -9 9 3 17 2 17 -3 0 -6 -4 -10 -9 -10
-4 0 -7 -11 -6 -25 2 -14 -1 -27 -6 -31 -5 -3 -6 -10 -3 -16 4 -7 2 -8 -4 -4
-7 4 -12 4 -13 -1 -2 -13 -8 -103 -12 -160 -2 -29 0 -53 5 -53 4 0 8 -5 8 -11
0 -5 -4 -7 -10 -4 -14 9 -12 -8 2 -24 8 -8 8 -11 2 -8 -13 8 -12 -45 1 -77 5
-12 5 -17 -2 -13 -12 7 -10 -29 2 -40 4 -5 5 -2 0 6 -5 9 -4 12 3 8 11 -8 11
-25 -1 -44 -5 -8 -3 -13 3 -13 7 0 9 -8 5 -20 -5 -16 -3 -19 12 -13 15 6 16 4
6 -8 -10 -12 -9 -20 3 -37 10 -15 11 -22 3 -22 -8 0 -9 -3 0 -13 6 -8 7 -18 3
-23 -4 -4 1 -2 11 5 15 12 17 12 11 -3 -3 -9 0 -24 7 -33 8 -9 9 -14 3 -10 -6
3 -11 0 -11 -8 0 -8 7 -17 14 -19 8 -3 11 -2 8 3 -3 5 -1 12 4 16 6 3 8 -3 6
-15 -2 -11 3 -24 13 -30 14 -8 14 -10 2 -10 -12 0 -11 -3 3 -11 9 -6 15 -14
12 -20 -4 -5 -1 -9 5 -9 6 0 8 -4 5 -10 -3 -5 0 -10 7 -10 7 0 22 -13 33 -28
15 -22 16 -24 2 -13 -15 12 -17 12 -11 -3 3 -9 15 -16 26 -16 14 0 18 -5 14
-16 -3 -8 -2 -12 4 -9 9 6 15 -9 11 -29 -1 -5 5 -4 13 4 10 7 16 8 16 2 0 -6
12 -24 26 -42 20 -24 29 -28 40 -19 10 8 12 6 9 -10 -2 -12 0 -21 6 -21 5 0 9
6 9 13 1 6 6 2 13 -11 10 -18 15 -20 26 -10 11 10 12 10 7 1 -7 -12 6 -18 28
-14 5 1 4 -4 -2 -12 -10 -12 -8 -13 14 -9 20 3 25 2 19 -7 -4 -8 -2 -12 6 -10
26 3 40 -1 35 -10 -3 -5 1 -11 9 -14 10 -4 12 -1 9 11 -2 9 1 7 7 -5 11 -21
13 -22 26 -5 7 9 12 13 11 7 -3 -8 6 -17 15 -14 20 6 36 5 31 -2 -3 -5 -10 -6
-16 -3 -7 4 -8 2 -4 -5 4 -6 12 -9 17 -6 5 4 9 0 9 -7 0 -9 3 -9 10 2 5 8 10
10 10 5 0 -6 11 -12 25 -13 14 -1 25 3 25 9 0 5 6 4 14 -3 8 -7 12 -17 9 -22
-3 -4 6 0 21 9 25 17 26 17 20 -1 -6 -16 -5 -17 7 -6 7 6 17 12 22 12 4 0 5
-6 1 -12 -6 -10 -4 -10 8 0 14 11 18 10 27 -5 6 -10 11 -13 11 -6 0 6 11 10
25 9 13 -2 22 0 20 4 -3 4 4 10 14 13 12 3 18 0 15 -7 -3 -7 5 -12 18 -13 13
0 17 1 11 4 -7 3 -13 9 -13 15 0 6 11 3 25 -6 16 -11 23 -12 20 -3 -4 9 5 12
30 11 26 -2 35 2 36 15 0 11 3 9 9 -6 11 -27 23 -31 13 -5 -6 15 -5 16 12 2
10 -8 16 -10 13 -5 -4 6 2 17 14 24 11 7 18 8 14 3 -3 -5 1 -9 9 -9 8 0 11 5
8 10 -4 6 2 8 14 5 13 -3 24 1 32 14 10 17 15 18 28 6 11 -8 14 -8 10 -1 -4 6
-3 14 3 18 5 3 10 1 10 -5 0 -6 5 -8 10 -5 6 4 7 12 3 18 -4 7 0 7 10 -1 14
-12 16 -11 12 10 -4 21 -3 22 9 5 13 -16 14 -16 19 4 3 11 10 18 15 15 6 -3
12 1 16 9 3 8 13 15 21 15 9 0 14 4 11 9 -3 4 6 7 19 5 22 -2 24 0 14 19 -7
12 -8 19 -4 15 13 -12 47 12 41 28 -3 8 -2 13 3 10 12 -8 53 39 44 49 -5 5 0
3 10 -4 15 -12 17 -12 11 4 -5 12 -4 16 4 11 6 -4 16 3 23 16 10 20 10 22 -2
13 -8 -5 -7 -3 3 6 9 9 14 19 11 23 -6 6 12 10 30 7 5 -1 6 3 2 8 -3 6 -13 7
-23 4 -13 -4 -13 -2 3 10 11 8 24 13 28 10 5 -3 4 4 -2 16 -10 17 -9 22 3 27
8 3 20 3 25 -1 6 -3 8 0 5 9 -3 8 0 25 6 38 11 22 10 22 -4 4 -9 -11 -16 -15
-16 -9 0 7 5 15 10 18 6 4 8 11 5 16 -3 5 0 6 8 3 8 -3 14 1 14 10 0 8 -5 12
-11 9 -6 -3 -5 0 2 8 14 16 16 33 2 24 -5 -3 -10 -2 -10 4 0 6 -7 7 -17 4 -12
-5 -14 -3 -8 8 8 12 6 12 -8 0 -14 -11 -20 -11 -34 0 -14 12 -16 12 -8 0 6
-11 2 -13 -19 -7 -15 4 -32 3 -39 -1 -22 -13 -45 -10 -39 5 4 11 2 13 -9 6
-21 -13 -92 -14 -108 -1 -11 9 -13 9 -8 0 10 -15 -52 -15 -72 1 -12 9 -13 8
-6 -3 6 -11 3 -13 -13 -9 -12 4 -22 2 -22 -2 0 -5 -9 -7 -21 -5 -17 3 -19 2
-9 -10 10 -12 9 -16 -4 -21 -10 -4 -15 -12 -12 -20 6 -17 -20 -38 -39 -30 -8
3 -14 2 -13 -2 3 -16 -15 -41 -26 -35 -6 4 -5 -1 3 -10 12 -15 12 -17 -2 -12
-8 4 -18 1 -22 -5 -6 -9 -10 -9 -17 1 -7 10 -9 8 -5 -7 3 -15 -1 -21 -12 -21
-29 -1 -61 -15 -54 -26 3 -6 1 -7 -6 -3 -6 4 -8 13 -5 19 5 8 3 8 -7 0 -16
-16 -33 -17 -23 -1 4 7 3 8 -4 4 -7 -4 -12 -14 -12 -23 0 -12 -3 -12 -17 4
-10 10 -15 14 -11 8 13 -20 -4 -26 -19 -7 -8 9 -12 12 -9 5 4 -6 2 -14 -4 -18
-5 -3 -10 -1 -10 6 0 7 -3 9 -7 6 -3 -4 -16 1 -27 10 -17 15 -18 15 -8 2 10
-14 10 -18 -2 -22 -9 -4 -18 -1 -22 5 -5 7 -2 8 7 3 11 -6 12 -5 2 5 -19 20
-43 21 -44 2 0 -13 -2 -11 -9 4 -6 16 -15 20 -32 17 -18 -3 -27 2 -36 19 -7
13 -11 16 -8 7 2 -9 -2 -16 -9 -16 -7 0 -11 7 -7 15 4 12 -1 14 -24 8 -19 -4
-24 -4 -15 3 12 8 12 12 -2 26 -10 9 -14 21 -11 27 4 7 2 8 -5 4 -6 -4 -9 -11
-6 -16 3 -5 1 -11 -4 -14 -5 -4 -8 5 -6 19 2 19 -1 23 -10 15 -15 -13 -28 2
-30 34 -1 10 -8 24 -16 30 -20 16 -47 51 -32 42 9 -5 11 -2 7 8 -3 9 -11 13
-18 9 -6 -3 -6 -1 2 8 17 18 15 29 -5 29 -15 0 -16 -2 -3 -10 8 -5 10 -10 4
-10 -21 0 -24 14 -7 33 10 11 12 17 6 13 -13 -7 -16 0 -16 37 0 9 -3 17 -7 17
-13 0 -20 29 -8 36 7 4 8 3 4 -4 -4 -7 -2 -12 3 -12 13 0 14 17 2 24 -5 3 -11
14 -14 25 -3 15 -1 18 11 13 14 -5 13 -2 -1 18 -21 31 -22 44 -1 36 14 -5 15
-4 4 9 -7 8 -9 15 -5 15 4 0 2 6 -4 14 -9 11 -9 16 0 22 8 4 9 3 5 -4 -4 -7
-2 -12 3 -12 14 0 14 17 1 25 -8 5 -7 11 1 21 9 11 8 14 -2 14 -10 0 -10 3 -3
8 7 4 14 16 16 27 2 11 10 19 17 17 9 -2 9 3 1 18 -10 19 -6 24 13 21 5 -1 5
4 1 11 -15 23 -14 40 1 28 9 -8 15 -8 20 0 3 5 1 10 -4 10 -6 0 -11 5 -11 11
0 5 5 7 12 3 7 -5 9 -2 5 9 -4 12 -1 15 14 12 17 -3 18 -1 8 18 -7 12 -8 19
-4 15 5 -4 21 5 36 21 15 16 30 27 33 24 3 -3 11 6 17 21 9 20 15 23 23 13 6
-7 10 -11 9 -9 -5 11 39 40 57 37 13 -3 20 2 21 13 0 11 2 13 6 4 4 -10 9 -9
20 5 8 10 12 12 8 6 -3 -7 -3 -13 2 -14 4 0 16 -2 25 -4 11 -2 15 2 11 12 -5
12 -7 12 -14 1 -5 -7 -9 -8 -9 -2 0 21 14 24 33 7 12 -10 17 -12 12 -4 -5 9
-3 12 6 9 8 -3 13 -12 11 -19 -3 -10 1 -10 15 2 20 17 57 14 47 -3 -4 -7 -2
-8 4 -4 7 4 12 15 12 24 0 14 2 15 9 2 6 -8 8 -17 5 -21 -2 -4 4 -6 13 -4 10
1 26 -2 37 -7 13 -7 16 -7 12 1 -12 18 27 -1 47 -24 10 -11 16 -14 12 -7 -3 6
-1 12 4 12 6 0 11 -4 11 -10 0 -5 5 -10 11 -10 6 0 24 -11 41 -25 16 -14 25
-25 20 -25 -5 0 -17 9 -27 20 -10 11 -23 20 -29 20 -6 0 -3 -5 7 -11 9 -6 15
-15 11 -20 -3 -5 -2 -9 3 -8 14 4 43 -13 38 -21 -3 -5 4 -11 15 -15 11 -4 18
-11 15 -16 -7 -10 8 -41 18 -40 20 3 28 0 23 -7 -6 -10 24 -9 41 1 6 4 14 3
18 -3 4 -6 12 -7 18 -3 20 12 37 12 37 0 0 -8 3 -7 9 2 6 9 10 10 16 2 5 -9
10 -9 21 0 10 8 18 8 27 0 10 -8 17 -7 25 1 9 9 12 9 12 -2 0 -12 2 -12 9 -2
4 8 12 14 16 14 4 0 12 -6 16 -14 7 -10 9 -10 9 0 0 9 5 10 17 3 10 -5 26 -5
39 -1 15 6 24 5 28 -3 3 -8 5 -8 5 2 1 10 4 11 15 2 10 -9 16 -8 26 4 7 8 16
12 21 9 5 -3 9 -1 9 4 0 6 -7 12 -15 16 -9 3 -12 12 -8 22 5 14 3 16 -12 11
-15 -6 -16 -5 -5 8 7 8 9 15 4 15 -5 0 -10 12 -11 26 0 14 -7 31 -13 38 -10 8
-11 8 -5 -3 5 -9 4 -12 -3 -7 -9 5 -9 13 -1 28 8 15 8 19 -1 13 -7 -4 -13 1
-17 14 -3 12 -10 18 -17 14 -6 -4 -4 2 4 12 9 11 10 16 3 11 -8 -4 -13 -2 -13
4 0 6 -5 8 -11 4 -7 -4 -7 1 1 16 11 20 10 21 -12 9 -21 -11 -22 -11 -9 4 9
12 10 17 2 17 -7 0 -9 4 -6 10 3 6 -1 7 -9 4 -12 -5 -16 0 -16 17 0 19 -2 21
-10 9 -5 -8 -10 -10 -10 -5 0 12 -60 84 -60 72 0 -15 -59 33 -65 53 -4 11 -11
20 -17 20 -6 0 -5 -6 2 -15 7 -9 -5 -4 -28 11 -23 15 -42 31 -42 35 0 5 -7 6
-15 3 -9 -4 -15 0 -15 8 0 8 -12 15 -32 16 -18 1 -39 10 -47 20 -13 16 -13 16
-8 0 4 -10 2 -18 -3 -18 -9 0 -14 15 -11 33 1 5 -3 6 -9 2 -6 -3 -8 -10 -5
-15 3 -5 0 -12 -6 -16 -8 -4 -9 -3 -5 4 4 7 2 12 -4 12 -6 0 -9 4 -6 8 3 5 -1
9 -9 9 -8 0 -11 -5 -8 -11 4 -6 -2 -4 -13 4 -10 9 -36 15 -56 15 -21 -1 -38 1
-38 5 0 4 -7 7 -15 7 -11 0 -12 -4 -5 -11 18 -18 11 -26 -9 -9 -11 9 -17 21
-14 26 3 6 1 7 -6 3 -6 -4 -9 -11 -6 -16 3 -5 0 -12 -6 -16 -8 -5 -9 -3 -4 6
6 10 4 12 -8 7 -10 -4 -20 0 -26 11 -6 9 -11 12 -11 5z m-46 -29 c3 -8 2 -12
-4 -9 -6 3 -10 10 -10 16 0 14 7 11 14 -7z m401 -62 c-3 -3 -11 0 -18 7 -9 10
-8 11 6 5 10 -3 15 -9 12 -12z m-225 -276 c0 -2 -8 -10 -17 -17 -16 -13 -17
-12 -4 4 13 16 21 21 21 13z m220 -186 c0 -5 -5 -10 -11 -10 -5 0 -7 5 -4 10
3 6 8 10 11 10 2 0 4 -4 4 -10z m-1145 -360 c3 -5 1 -10 -4 -10 -6 0 -11 5
-11 10 0 6 2 10 4 10 3 0 8 -4 11 -10z m1085 -314 c0 -2 -7 -7 -16 -10 -8 -3
-12 -2 -9 4 6 10 25 14 25 6z m-367 -101 c-3 -9 -8 -14 -10 -11 -3 3 -2 9 2
15 9 16 15 13 8 -4z m-438 -185 c10 -11 16 -20 13 -20 -3 0 -13 9 -23 20 -10
11 -16 20 -13 20 3 0 13 -9 23 -20z m540 -169 c-9 -8 -36 -10 -30 -2 2 4 11 8
20 8 8 0 13 -3 10 -6z"/>
<path d="M3595 6351 c-3 -5 -2 -12 3 -15 5 -3 9 1 9 9 0 17 -3 19 -12 6z"/>
<path d="M7608 6309 c5 -13 6 -35 2 -49 -4 -14 -3 -33 2 -42 6 -14 5 -18 -7
-18 -9 0 -13 -5 -10 -10 4 -6 9 -8 13 -6 9 5 7 -492 -1 -500 -3 -4 -2 -15 4
-25 7 -14 6 -19 -3 -19 -9 0 -9 -3 2 -10 12 -8 12 -10 -5 -10 -16 0 -17 -2 -6
-9 12 -7 15 -45 15 -188 1 -98 -1 -190 -5 -204 -4 -14 -2 -33 3 -42 6 -12 5
-17 -4 -17 -9 0 -9 -3 2 -10 13 -8 12 -10 -3 -10 -15 0 -16 -2 -5 -13 10 -10
13 -64 12 -236 -1 -204 1 -222 16 -218 10 2 25 0 35 -6 13 -7 16 -6 11 2 -9
15 7 14 22 -1 9 -9 12 -9 12 0 0 7 5 12 11 12 5 0 7 -4 4 -10 -4 -7 3 -7 19 0
19 7 26 6 26 -3 0 -7 3 -8 8 -2 10 14 63 16 79 3 10 -8 13 -7 13 3 0 11 2 11
10 -1 5 -8 10 -10 10 -4 0 7 11 9 25 6 17 -3 25 0 25 9 0 11 2 11 10 -1 8 -13
13 -13 31 -2 17 11 20 11 14 0 -6 -9 -5 -10 4 -2 6 6 13 20 16 32 3 16 0 19
-13 15 -14 -5 -14 -3 2 16 16 17 17 24 7 34 -10 9 -11 8 -6 -8 6 -16 5 -17 -4
-5 -15 21 -14 30 4 30 8 0 15 4 15 10 0 5 -6 7 -13 4 -9 -3 -13 4 -13 21 0 14
6 25 13 25 7 0 13 5 13 11 0 5 -4 7 -10 4 -5 -3 -10 -2 -10 4 0 5 7 14 16 19
15 8 15 10 0 15 -10 4 -15 3 -11 -3 3 -6 2 -10 -4 -10 -5 0 -9 9 -8 19 0 11 4
18 8 15 9 -5 17 18 12 34 -3 6 -10 9 -16 5 -7 -4 -6 1 2 10 11 14 11 20 1 32
-10 12 -10 18 0 30 7 8 8 15 3 15 -5 0 -10 7 -10 15 0 10 4 12 12 5 8 -7 12
-5 12 5 0 8 -6 15 -14 15 -7 0 -13 5 -13 11 0 5 4 8 9 5 16 -10 20 23 5 39 -9
8 -11 15 -5 15 6 0 11 8 11 18 0 14 -2 14 -9 3 -7 -10 -9 -7 -8 12 2 19 5 23
15 15 17 -15 15 -2 -4 16 -8 9 -11 16 -5 16 6 0 11 8 11 18 0 14 -2 15 -10 2
-5 -8 -10 -10 -10 -5 0 12 42 51 50 46 29 -18 42 -22 36 -12 -4 6 -1 11 8 11
8 0 19 -6 23 -13 4 -8 17 -19 28 -25 11 -6 14 -12 8 -12 -19 0 -16 -30 3 -37
13 -5 13 -7 2 -14 -9 -6 -7 -9 8 -9 15 0 20 -6 20 -22 -1 -13 5 -23 12 -24 23
-3 24 -4 13 -18 -12 -15 1 -32 17 -22 4 2 9 -7 10 -21 1 -14 10 -32 20 -39 16
-13 16 -14 -3 -7 -17 6 -18 5 -5 -9 8 -9 19 -13 24 -10 5 3 7 -7 4 -22 -4 -19
-2 -26 7 -22 15 5 32 -30 29 -61 -1 -12 3 -20 8 -17 4 3 6 10 3 15 -4 5 -4 9
-1 9 3 0 10 -10 17 -21 9 -17 8 -20 -3 -14 -7 3 -5 0 4 -8 14 -11 15 -16 5
-27 -9 -10 -9 -11 1 -6 6 4 12 2 12 -4 0 -6 5 -8 13 -4 7 5 7 2 -2 -10 -12
-15 -12 -17 0 -14 9 2 13 -4 11 -16 -2 -12 1 -16 9 -10 9 5 11 1 7 -14 -3 -12
-3 -21 1 -20 3 0 13 0 21 -1 13 -1 13 -2 0 -11 -13 -8 -12 -10 3 -10 10 0 17
-6 16 -12 -3 -27 1 -48 11 -48 5 0 7 8 3 18 -5 14 -3 13 10 -3 8 -11 19 -17
23 -13 4 4 13 3 21 -3 9 -9 13 -8 13 0 0 6 5 11 11 11 5 0 7 -4 4 -10 -4 -7 3
-7 19 0 19 7 26 6 26 -3 0 -7 3 -8 8 -2 10 14 63 16 79 3 9 -7 13 -7 13 1 0 6
5 11 11 11 5 0 7 -4 4 -10 -4 -7 3 -7 19 0 19 7 26 6 26 -3 0 -7 3 -8 8 -2 10
14 63 16 79 3 10 -8 13 -7 13 2 0 10 3 10 15 0 11 -9 15 -9 15 -1 0 7 4 10 9
6 6 -3 15 4 21 15 10 18 9 21 -6 18 -14 -2 -18 4 -20 30 0 18 -5 36 -9 40 -5
4 -5 -1 -2 -10 4 -10 4 -18 1 -18 -3 0 -10 14 -15 30 -6 17 -16 30 -21 30 -6
0 -6 6 1 14 10 12 8 13 -10 9 -19 -5 -21 -3 -17 15 4 12 1 25 -4 29 -7 4 -8 1
-3 -7 5 -9 4 -11 -4 -6 -9 6 -9 11 0 22 7 9 8 14 3 13 -5 -1 -16 -1 -24 0 -13
1 -13 2 0 11 13 9 13 10 0 11 -8 1 -19 1 -24 0 -5 -1 -4 5 4 13 9 12 9 16 1
16 -7 0 -9 5 -5 12 5 7 2 9 -8 6 -14 -6 -18 2 -19 45 0 9 -4 15 -8 12 -5 -2
-15 3 -22 12 -12 14 -12 16 0 9 9 -6 12 -5 9 5 -3 8 -10 13 -16 12 -6 -2 -9 7
-7 18 3 15 0 19 -10 15 -8 -3 -17 -1 -20 4 -4 6 -1 10 4 10 6 0 11 5 11 11 0
6 -7 9 -14 6 -11 -4 -13 -1 -9 10 4 10 2 14 -4 10 -6 -4 -10 1 -9 11 0 9 -4
16 -10 15 -7 -1 -10 5 -7 15 2 10 -9 32 -26 51 -33 37 -39 49 -18 35 7 -5 5
-2 -5 8 -33 30 -18 57 26 49 5 -1 3 6 -5 15 -13 16 -12 16 8 6 18 -10 24 -9
32 5 9 16 12 16 22 3 9 -12 10 -11 6 8 -5 23 8 31 16 10 3 -8 6 -6 6 4 1 11 6
15 16 12 8 -4 15 -1 15 5 0 6 -5 11 -12 11 -6 0 -8 3 -5 6 4 4 13 1 22 -6 13
-11 14 -10 9 5 -5 13 -4 16 4 11 10 -6 16 4 14 25 -1 3 10 5 24 3 21 -2 24 1
18 18 -4 12 -2 18 4 14 12 -7 46 30 38 42 -3 6 1 13 10 16 8 3 12 10 9 16 -3
5 -1 10 4 10 6 0 10 6 8 13 -1 6 4 11 11 10 6 -2 12 4 12 13 0 9 -5 12 -12 8
-7 -4 -4 3 7 16 11 13 14 20 8 16 -9 -5 -11 -2 -7 8 3 9 11 13 16 10 7 -5 7 0
0 12 -12 21 3 59 18 49 6 -3 7 1 4 10 -5 13 -9 13 -23 3 -11 -9 -10 -6 3 9 10
12 16 29 13 38 -4 8 -1 15 5 15 7 0 3 7 -8 16 -10 8 -14 13 -8 10 7 -3 14 3
17 14 3 11 2 18 -3 15 -4 -3 -10 2 -13 10 -4 9 -1 12 9 8 7 -3 14 0 14 6 0 6
-3 10 -7 10 -27 -4 -33 3 -27 36 4 24 1 40 -10 51 -12 11 -13 20 -6 34 8 16 8
18 -5 14 -8 -4 -15 -1 -15 5 0 6 6 11 13 12 6 0 2 4 -10 9 -12 5 -27 19 -33
32 -11 22 -10 22 4 4 9 -11 16 -15 16 -9 0 16 -28 36 -41 28 -8 -6 -8 -2 0 13
10 18 9 20 -10 17 -17 -3 -19 -1 -9 10 8 10 8 15 -1 21 -8 4 -9 3 -5 -4 4 -7
2 -12 -5 -12 -7 0 -9 8 -6 21 4 15 2 17 -6 10 -13 -10 -52 11 -40 22 3 4 2 7
-4 7 -5 0 -22 11 -37 25 -15 14 -32 23 -37 20 -5 -4 -9 0 -9 7 0 9 -3 9 -10
-2 -7 -11 -10 -11 -10 -2 0 7 -4 11 -9 7 -5 -3 -12 -1 -16 5 -4 6 -11 8 -16 5
-5 -3 -6 0 -4 8 4 10 -3 13 -30 11 -20 -2 -34 0 -31 4 3 5 -5 14 -17 22 -20
12 -21 12 -8 -4 8 -9 11 -20 7 -24 -4 -4 -12 1 -18 11 -9 18 -10 18 -25 0 -8
-10 -12 -13 -10 -8 3 6 -1 16 -9 23 -11 10 -14 10 -14 0 0 -9 -3 -9 -10 2 -8
12 -10 12 -10 1 0 -11 -3 -11 -17 0 -15 12 -16 12 -8 -1 8 -13 7 -13 -8 -1
-13 10 -20 11 -30 2 -8 -6 -17 -8 -21 -4 -12 12 -40 12 -48 0 -4 -7 -8 -7 -8
-2 0 14 -38 17 -45 4 -4 -5 -12 -6 -18 -2 -21 13 -47 13 -47 0 0 -7 -3 -8 -8
-2 -11 15 -32 17 -47 5 -10 -8 -15 -8 -20 0 -5 8 -11 7 -23 -2 -12 -10 -14
-10 -8 0 5 8 1 12 -13 12 -11 0 -23 -5 -26 -10 -5 -8 -11 -8 -19 -1 -9 7 -16
7 -23 0 -8 -8 -13 -7 -18 1 -5 8 -10 8 -20 0 -10 -8 -15 -8 -20 0 -5 8 -11 7
-23 -2 -12 -10 -14 -10 -8 0 4 7 2 12 -8 12 -8 0 -18 -5 -21 -10 -5 -8 -11 -8
-20 0 -10 8 -15 8 -20 0 -5 -8 -10 -8 -20 0 -10 8 -15 8 -20 0 -5 -8 -11 -8
-19 -1 -9 7 -16 7 -23 0 -7 -7 -17 -8 -25 -3 -20 13 -38 14 -38 2 0 -6 -6 -5
-15 2 -14 11 -14 10 -7 -11z m1042 -80 c0 -4 -7 -6 -15 -3 -8 4 -15 10 -15 15
0 4 7 6 15 3 8 -4 15 -10 15 -15z m-603 -234 c0 -8 -4 -12 -9 -9 -5 3 -6 10
-3 15 9 13 12 11 12 -6z m128 6 c3 -5 2 -12 -3 -15 -5 -3 -9 1 -9 9 0 17 3 19
12 6z m92 -14 c19 -3 34 0 37 6 2 7 5 4 5 -5 1 -20 9 -22 30 -9 10 7 23 0 45
-22 17 -18 29 -35 28 -39 -1 -4 5 -5 13 -2 8 3 22 -1 30 -10 19 -19 5 -22 -14
-3 -11 9 -10 7 0 -10 8 -13 18 -23 24 -23 5 0 3 -5 -5 -10 -13 -8 -12 -10 3
-10 10 0 15 -5 12 -10 -4 -6 -12 -8 -18 -4 -7 3 -1 -4 12 -15 13 -12 18 -21
11 -21 -6 0 -10 -6 -7 -12 2 -7 10 -12 16 -10 7 1 10 -2 6 -8 -3 -6 -11 -7
-17 -4 -7 5 -9 2 -5 -8 3 -9 0 -21 -6 -27 -13 -13 -19 -43 -7 -36 5 3 0 -12
-11 -34 -10 -21 -26 -42 -36 -45 -14 -6 -13 -2 5 14 12 11 22 25 22 31 0 6
-11 -3 -25 -19 -14 -17 -25 -34 -25 -39 0 -5 -7 -10 -15 -10 -12 0 -12 3 -2
16 10 14 10 14 -5 3 -10 -8 -23 -10 -30 -6 -10 6 -9 3 1 -9 7 -9 11 -17 8 -17
-3 0 -12 -3 -21 -6 -9 -3 -16 -1 -16 6 0 6 5 8 12 4 7 -5 8 -3 4 5 -6 9 -13 8
-28 -5 -16 -16 -21 -16 -28 -4 -6 8 -10 11 -10 5 0 -5 -20 -11 -45 -11 -29 -1
-43 2 -38 9 4 6 1 7 -8 2 -20 -13 -52 -14 -66 -3 -9 7 -13 7 -13 0 0 -5 -11
-9 -25 -8 -14 0 -25 5 -25 10 0 5 -6 3 -14 -3 -17 -14 -29 8 -16 29 9 15 2 42
-9 35 -4 -2 -8 2 -8 10 0 8 4 12 9 9 4 -3 8 0 8 6 0 6 5 8 12 4 7 -4 8 -3 4 4
-4 6 -14 9 -24 6 -11 -4 -9 2 8 17 17 15 19 20 8 16 -20 -7 -20 -7 -22 50 -1
23 1 40 5 37 13 -7 18 23 6 35 -13 13 -18 93 -6 85 14 -8 18 26 4 40 -12 11
-12 15 -1 19 7 3 19 1 26 -3 16 -10 42 -2 34 11 -3 5 2 6 10 3 9 -3 13 -10 10
-15 -3 -5 2 -6 10 -3 9 3 14 10 11 14 -6 10 35 1 50 -11 6 -4 17 -4 25 1 20
13 33 12 25 0 -3 -5 0 -7 9 -4 8 3 12 13 9 22 -3 11 -2 13 4 5 4 -6 22 -13 40
-16z m166 -39 c5 1 6 -2 2 -8 -4 -6 -15 -4 -31 6 -30 20 -32 29 -1 12 12 -7
26 -11 30 -10z m57 -222 c0 -2 -7 -7 -16 -10 -8 -3 -12 -2 -9 4 6 10 25 14 25
6z m-480 -100 c0 -3 -4 -8 -10 -11 -5 -3 -10 -1 -10 4 0 6 5 11 10 11 6 0 10
-2 10 -4z m785 -116 c-3 -5 -12 -10 -18 -10 -7 0 -6 4 3 10 19 12 23 12 15 0z"/>
<path d="M8003 5895 c0 -7 6 -11 14 -8 7 3 13 6 13 8 0 2 -6 5 -13 8 -8 3 -14
-1 -14 -8z"/>
<path d="M8005 5860 c-3 -5 -1 -10 4 -10 6 0 11 5 11 10 0 6 -2 10 -4 10 -3 0
-8 -4 -11 -10z"/>
<path d="M8003 5775 c0 -7 6 -11 14 -8 7 3 13 6 13 8 0 2 -6 5 -13 8 -8 3 -14
-1 -14 -8z"/>
<path d="M8005 5740 c-3 -5 -1 -10 4 -10 6 0 11 5 11 10 0 6 -2 10 -4 10 -3 0
-8 -4 -11 -10z"/>
<path d="M1230 6256 c0 -2 7 -7 16 -10 8 -3 12 -2 9 4 -6 10 -25 14 -25 6z"/>
<path d="M1320 6201 c0 -6 4 -13 10 -16 6 -3 7 1 4 9 -7 18 -14 21 -14 7z"/>
<path d="M1350 6181 c0 -5 5 -13 10 -16 6 -3 10 -2 10 4 0 5 -4 13 -10 16 -5
3 -10 2 -10 -4z"/>
<path d="M5755 6170 c3 -5 8 -10 11 -10 2 0 4 5 4 10 0 6 -5 10 -11 10 -5 0
-7 -4 -4 -10z"/>
<path d="M4819 6103 c-7 -10 -10 -15 -5 -11 5 4 17 3 26 -2 14 -8 18 -6 16 7
-4 24 -21 27 -37 6z"/>
<path d="M4736 6087 c3 -10 9 -15 12 -12 3 3 0 11 -7 18 -10 9 -11 8 -5 -6z"/>
<path d="M8879 5938 c-5 -18 -6 -38 -1 -34 7 8 12 36 6 36 -2 0 -4 -1 -5 -2z"/>
<path d="M10306 5928 c3 -5 10 -6 15 -3 13 9 11 12 -6 12 -8 0 -12 -4 -9 -9z"/>
<path d="M9855 5889 c-4 -6 -5 -12 -2 -15 2 -3 7 2 10 11 7 17 1 20 -8 4z"/>
<path d="M10644 5865 c8 -8 18 -15 22 -15 3 0 1 7 -6 15 -7 8 -17 15 -22 15
-5 0 -3 -7 6 -15z"/>
<path d="M3310 5856 c0 -2 7 -7 16 -10 8 -3 12 -2 9 4 -6 10 -25 14 -25 6z"/>
<path d="M7585 5840 c-3 -6 1 -7 9 -4 18 7 21 14 7 14 -6 0 -13 -4 -16 -10z"/>
<path d="M10806 5838 c3 -5 10 -6 15 -3 13 9 11 12 -6 12 -8 0 -12 -4 -9 -9z"/>
<path d="M21 5767 c-8 -10 -7 -14 2 -14 8 0 14 6 14 14 0 7 -1 13 -2 13 -2 0
-8 -6 -14 -13z"/>
<path d="M5970 5726 c0 -2 6 -9 14 -15 11 -9 16 -9 22 0 4 8 3 9 -4 5 -7 -4
-12 -2 -12 3 0 6 -4 11 -10 11 -5 0 -10 -2 -10 -4z"/>
<path d="M5213 5705 c0 -8 4 -12 9 -9 5 3 6 10 3 15 -9 13 -12 11 -12 -6z"/>
<path d="M9895 5640 c3 -5 11 -10 16 -10 6 0 7 5 4 10 -3 6 -11 10 -16 10 -6
0 -7 -4 -4 -10z"/>
<path d="M7585 5360 c-3 -6 1 -7 9 -4 18 7 21 14 7 14 -6 0 -13 -4 -16 -10z"/>
<path d="M10496 5312 c-3 -5 1 -9 9 -9 8 0 12 4 9 9 -3 4 -7 8 -9 8 -2 0 -6
-4 -9 -8z"/>
<path d="M515 5160 c3 -5 8 -10 11 -10 2 0 4 5 4 10 0 6 -5 10 -11 10 -5 0 -7
-4 -4 -10z"/>
<path d="M1110 5159 c0 -5 5 -7 10 -4 6 3 10 8 10 11 0 2 -4 4 -10 4 -5 0 -10
-5 -10 -11z"/>
<path d="M10670 5139 c0 -5 5 -7 10 -4 6 3 10 8 10 11 0 2 -4 4 -10 4 -5 0
-10 -5 -10 -11z"/>
<path d="M10666 5108 c3 -5 10 -6 15 -3 13 9 11 12 -6 12 -8 0 -12 -4 -9 -9z"/>
<path d="M8190 5086 c0 -2 7 -6 15 -10 8 -3 15 -1 15 4 0 6 -7 10 -15 10 -8 0
-15 -2 -15 -4z"/>
<path d="M2636 5068 c5 -8 2 -9 -10 -5 -9 4 -15 3 -12 -2 3 -5 -1 -12 -10 -15
-8 -3 -13 -2 -10 3 3 4 -6 6 -20 3 -16 -3 -21 -7 -14 -12 8 -5 3 -9 -12 -14
-19 -5 -20 -8 -8 -16 13 -9 13 -10 0 -10 -13 0 -13 -1 0 -10 13 -9 13 -10 0
-10 -9 -1 -6 -6 10 -16 14 -8 17 -13 8 -10 -10 3 -20 0 -24 -6 -4 -6 -3 -8 3
-5 11 7 53 -20 53 -34 0 -6 -4 -7 -10 -4 -5 3 -10 1 -10 -5 0 -6 8 -10 18 -8
10 2 16 -2 14 -10 -1 -8 2 -11 8 -7 8 5 7 12 -2 23 -11 13 -11 14 1 7 21 -12
62 -15 55 -3 -4 6 0 14 7 19 11 7 9 9 -6 9 -15 0 -17 3 -7 9 8 4 13 11 13 15
-5 38 1 65 17 69 15 4 15 5 -2 6 -13 1 -17 7 -13 21 5 18 4 18 -22 3 -17 -11
-22 -12 -13 -3 15 17 16 30 1 30 -5 0 -7 -5 -3 -12z"/>
<path d="M5471 5007 c-8 -10 -7 -14 2 -14 8 0 14 6 14 14 0 7 -1 13 -2 13 -2
0 -8 -6 -14 -13z"/>
<path d="M1434 4898 l-19 -23 23 19 c21 18 27 26 19 26 -2 0 -12 -10 -23 -22z"/>
<path d="M7585 4880 c-3 -6 1 -7 9 -4 18 7 21 14 7 14 -6 0 -13 -4 -16 -10z"/>
<path d="M8005 4830 c-3 -6 1 -7 9 -4 18 7 21 14 7 14 -6 0 -13 -4 -16 -10z"/>
<path d="M1171 4714 c0 -11 3 -14 6 -6 3 7 2 16 -1 19 -3 4 -6 -2 -5 -13z"/>
<path d="M10474 4649 c-4 -7 -3 -9 4 -5 5 3 13 0 15 -6 4 -9 6 -10 6 -1 1 17
-16 25 -25 12z"/>
<path d="M5632 4634 c-7 -8 -10 -20 -7 -27 4 -6 -1 -3 -9 7 -10 12 -16 15 -16
7 0 -8 -6 -11 -15 -7 -13 5 -14 2 -4 -17 11 -19 10 -21 -3 -9 -11 9 -18 10
-23 2 -4 -6 -1 -9 7 -8 7 2 12 -2 11 -7 -1 -6 7 -11 17 -11 10 0 16 5 14 11
-3 5 2 1 10 -9 10 -12 16 -15 16 -7 0 7 6 11 13 8 6 -2 11 -10 10 -16 -4 -16
2 -14 18 6 12 14 12 16 -1 9 -8 -4 -6 0 5 9 17 14 18 17 5 25 -13 8 -12 10 3
10 9 0 17 4 17 10 0 5 -7 7 -15 4 -11 -5 -14 -1 -9 12 5 16 4 16 -5 4 -8 -11
-13 -12 -18 -4 -6 9 -12 8 -21 -2z m18 -48 c0 -2 -7 -7 -16 -10 -8 -3 -12 -2
-9 4 6 10 25 14 25 6z"/>
<path d="M6434 4634 c3 -8 2 -12 -4 -9 -6 3 -10 1 -10 -4 0 -6 5 -11 10 -11 6
0 9 -3 8 -7 0 -5 4 -19 10 -33 6 -14 11 -18 12 -10 0 13 2 13 9 1 5 -8 16 -11
25 -8 12 5 14 12 7 31 -6 13 -8 26 -5 28 2 3 -6 13 -18 24 -12 10 -18 13 -14
7 4 -7 2 -13 -3 -13 -6 0 -11 5 -11 10 0 6 -5 10 -11 10 -6 0 -8 -7 -5 -16z
m51 -14 c3 -5 1 -10 -4 -10 -6 0 -11 5 -11 10 0 6 2 10 4 10 3 0 8 -4 11 -10z"/>
<path d="M5639 4465 c-1 -5 -1 -14 0 -19 1 -5 -4 -4 -13 3 -11 9 -16 9 -22 0
-4 -7 -3 -9 3 -6 6 4 14 0 17 -9 3 -8 2 -12 -4 -9 -6 3 -10 1 -10 -4 0 -6 9
-11 21 -11 13 0 18 -4 13 -12 -4 -7 -3 -8 5 -4 6 4 9 16 6 26 -5 15 -2 17 17
13 22 -4 22 -4 3 8 -11 7 -23 17 -27 23 -5 7 -8 7 -9 1z"/>
<path d="M6580 4115 c7 -8 17 -15 22 -15 5 0 3 7 -6 15 -8 8 -18 15 -22 15 -3
0 -1 -7 6 -15z"/>
<path d="M3501 3812 c0 -7 -5 -11 -10 -7 -5 3 -12 1 -15 -4 -3 -5 1 -12 10
-15 8 -3 12 -11 8 -17 -7 -11 12 -29 31 -29 6 0 3 5 -5 10 -13 8 -13 11 -1 22
10 10 12 10 7 1 -4 -7 -5 -13 -2 -13 3 0 10 10 17 21 8 15 8 19 0 15 -6 -4
-11 -1 -11 6 0 10 -2 10 -9 -1 -7 -11 -10 -10 -14 5 -2 10 -5 13 -6 6z"/>
<path d="M3535 3691 c5 -15 3 -21 -3 -17 -6 3 -14 1 -18 -5 -4 -8 -3 -9 4 -5
7 4 12 3 12 -2 0 -4 13 -8 29 -8 25 0 28 3 21 16 -6 11 -5 22 3 30 10 10 9 11
-3 4 -20 -12 -33 -12 -43 1 -5 5 -5 -1 -2 -14z m30 -11 c3 -5 1 -10 -4 -10 -6
0 -11 5 -11 10 0 6 2 10 4 10 3 0 8 -4 11 -10z"/>
<path d="M2355 3680 c-3 -5 -2 -10 4 -10 5 0 13 5 16 10 3 6 2 10 -4 10 -5 0
-13 -4 -16 -10z"/>
<path d="M3600 3575 c-9 -10 -9 -15 -1 -15 6 0 11 -7 11 -16 0 -8 5 -12 10 -9
6 4 8 12 4 18 -3 7 2 3 10 -7 13 -17 16 -17 16 -4 0 9 6 19 13 21 9 4 9 6 -1
6 -7 1 -10 6 -7 11 10 16 -41 12 -55 -5z"/>
<path d="M6058 3533 c7 -3 16 -2 19 1 4 3 -2 6 -13 5 -11 0 -14 -3 -6 -6z"/>
<path d="M3423 3515 c0 -8 4 -12 9 -9 5 3 6 10 3 15 -9 13 -12 11 -12 -6z"/>
<path d="M3543 3516 c-9 -10 -9 -17 0 -26 9 -10 9 -11 0 -6 -6 3 -15 1 -19 -6
-4 -7 -4 -10 1 -6 4 4 15 2 23 -5 13 -10 14 -9 7 2 -6 11 -4 13 8 8 11 -4 17
-1 17 8 0 8 8 15 18 16 10 0 12 3 4 6 -6 2 -10 9 -6 14 3 5 1 9 -5 9 -5 0 -12
-6 -14 -12 -4 -10 -6 -10 -6 0 -1 16 -13 15 -28 -2z"/>
<path d="M3345 3221 c-3 -5 -2 -12 3 -15 5 -3 9 1 9 9 0 17 -3 19 -12 6z"/>
<path d="M2508 3173 c7 -3 16 -2 19 1 4 3 -2 6 -13 5 -11 0 -14 -3 -6 -6z"/>
<path d="M3180 3156 c0 -2 8 -10 18 -17 15 -13 16 -12 3 4 -13 16 -21 21 -21
13z"/>
<path d="M3361 3153 c0 -7 -8 -10 -17 -6 -9 3 -20 0 -25 -8 -7 -11 -9 -11 -9
-1 0 7 -5 10 -10 7 -6 -4 -7 -12 -3 -18 5 -8 2 -8 -9 0 -13 12 -14 9 -4 -21 6
-19 13 -31 16 -26 8 12 43 16 60 5 13 -8 13 -7 0 10 -14 17 -13 18 2 13 10 -4
19 -1 22 8 3 8 1 14 -4 14 -5 0 -11 8 -13 18 -3 9 -5 12 -6 5z"/>
<path d="M6475 3080 c-3 -5 -1 -10 4 -10 6 0 11 5 11 10 0 6 -2 10 -4 10 -3 0
-8 -4 -11 -10z"/>
</g>
</svg>
